<svg width="57" height="57" viewBox="0 0 57 57" fill="none" xmlns="http://www.w3.org/2000/svg">
<circle cx="28.3645" cy="28.3645" r="27.3645" transform="rotate(-180 28.3645 28.3645)" stroke="#5B5D6D" stroke-width="2"/>
<g clip-path="url(#clip0)">
<path d="M28.21 16.6514C20.9135 16.6514 15 21.4555 15 27.3845C15 29.9439 16.1043 32.2866 17.9413 34.1288C17.2963 36.7295 15.1393 39.0464 15.1135 39.0722C15 39.1909 14.969 39.3664 15.0361 39.5212C15.1032 39.676 15.2477 39.7689 15.4128 39.7689C18.834 39.7689 21.3986 38.1279 22.668 37.1165C24.3554 37.7512 26.2285 38.1176 28.21 38.1176C35.5065 38.1176 41.42 33.3135 41.42 27.3845C41.42 21.4555 35.5065 16.6514 28.21 16.6514Z" fill="#8386A1"/>
</g>
<defs>
<clipPath id="clip0">
<rect width="26.42" height="26.42" fill="white" transform="translate(15 15)"/>
</clipPath>
</defs>
</svg>
