<svg width="57" height="57" viewBox="0 0 57 57" fill="none" xmlns="http://www.w3.org/2000/svg">
<path d="M18.703 32.0556L26.7534 32.6749L25.5665 37.2883C25.2569 38.661 25.6067 39.449 26.7261 39.7963L28.5162 40.3046C28.5586 40.3159 28.6034 40.3133 28.6443 40.2974C28.6851 40.2814 28.7198 40.2529 28.7433 40.2159L35.4003 29.7741C35.4372 29.7141 35.4889 29.6645 35.5504 29.6301C35.6119 29.5957 35.6812 29.5776 35.7517 29.5775L41.4092 29.5775L41.4092 18.8448L35.3399 18.8448C35.0737 18.8448 34.8092 18.802 34.5566 18.7178L30.6191 17.4055C30.1981 17.2651 29.7573 17.1935 29.3135 17.1934L20.1315 17.1934C19.151 17.1934 18.5059 17.8911 18.3134 18.853L16.6388 26.1943L16.6388 29.9914C16.6388 31.1298 17.5677 31.9524 18.703 32.0556Z" fill="#8386A2"/>
<circle cx="28.6355" cy="28.3645" r="27.3645" transform="rotate(-180 28.6355 28.3645)" stroke="#5B5D6D" stroke-width="2"/>
</svg>
