<svg width="57" height="57" viewBox="0 0 57 57" fill="none" xmlns="http://www.w3.org/2000/svg">
<path d="M38.297 25.4503L30.2466 24.831L31.4335 20.2175C31.7431 18.8448 31.3933 18.0568 30.2739 17.7095L28.4838 17.2012C28.4414 17.19 28.3966 17.1925 28.3557 17.2085C28.3149 17.2245 28.2802 17.253 28.2567 17.29L21.5997 27.7317C21.5628 27.7918 21.5111 27.8414 21.4496 27.8758C21.3881 27.9102 21.3188 27.9283 21.2483 27.9283H15.5908V38.6611H21.6601C21.9263 38.661 22.1908 38.7039 22.4434 38.788L26.3809 40.1004C26.8019 40.2408 27.2427 40.3124 27.6865 40.3125H36.8685C37.849 40.3125 38.4941 39.6148 38.6866 38.6528L40.3612 31.3115V27.5145C40.3612 26.3761 39.4323 25.5535 38.297 25.4503Z" fill="#8386A2"/>
<circle cx="28.3645" cy="28.3645" r="27.3645" stroke="#5B5D6D" stroke-width="2"/>
</svg>
