<svg width="35" height="35" viewBox="0 0 45 38" xmlns="http://www.w3.org/2000/svg">
<path d="M34.3129 6.36969C31.3738 2.46438 27.115 0 22.3748 0C17.6345 0 13.3757 2.46438 10.4366 6.36969C11.0863 7.96342 12.0478 9.41136 13.2646 10.6285C14.7683 12.1315 16.6205 13.2391 18.656 13.8527C20.6916 14.4662 22.8473 14.5667 24.9311 14.145C27.0149 13.7234 28.9621 12.7928 30.599 11.4362C32.2359 10.0795 33.5118 8.33901 34.3129 6.36969Z"/>
<path d="M8.46044 7.6865C8.64492 7.82024 8.84363 7.93315 9.05296 8.02316C11.3086 12.585 15.9815 16.0762 21.3446 16.3691V37.9998C17.2878 37.7574 14.039 35.7138 11.3086 32.5256C11.073 32.704 10.8979 32.8656 10.7363 33.0171C10.5096 33.2318 10.3512 33.5086 10.2812 33.8128C10.2111 34.117 10.2324 34.4352 10.3424 34.7274C10.4905 35.1298 10.529 35.5643 10.4538 35.9864C10.3786 36.4086 10.1924 36.8031 9.91447 37.1296C9.63651 37.456 9.27671 37.7027 8.87197 37.8442C8.46724 37.9858 8.03212 38.0171 7.61128 37.9351C7.19043 37.853 6.79899 37.6605 6.4771 37.3772C6.15521 37.0939 5.91446 36.7302 5.77953 36.3232C5.64461 35.9162 5.62036 35.4806 5.70929 35.0612C5.79822 34.6417 5.99712 34.2535 6.28559 33.9362C6.37231 33.8409 6.46691 33.7531 6.56839 33.6736C6.62673 33.6203 6.69113 33.5739 6.76028 33.5356C7.13061 32.1957 8.00931 30.9871 9.43677 29.8794C7.83021 27.1339 6.84748 24.0685 6.55829 20.9006C6.35009 20.9025 6.14216 20.916 5.93546 20.941C5.65469 20.9787 5.38968 21.0928 5.1694 21.2709C4.94912 21.4491 4.78205 21.6843 4.68643 21.951C4.53099 22.3645 4.26536 22.7276 3.91831 23.0009C3.57127 23.2742 3.15604 23.4473 2.71763 23.5015C2.27922 23.5557 1.83433 23.4889 1.43117 23.3084C1.02801 23.1278 0.681941 22.8403 0.430472 22.4772C0.179004 22.114 0.031724 21.6889 0.00457627 21.248C-0.0225715 20.8071 0.0714483 20.3671 0.276462 19.9758C0.481476 19.5845 0.789661 19.2568 1.16762 19.0281C1.54559 18.7995 1.97892 18.6786 2.42068 18.6786C2.51859 18.6803 2.61635 18.687 2.71357 18.6988C3.07523 18.4386 3.47654 18.2385 3.902 18.1063C4.73293 17.8463 5.59685 17.7069 6.46738 17.6922C6.55321 15.4462 6.97771 13.2262 7.72651 11.107C7.18256 10.7978 6.66959 10.437 6.19468 10.0297C5.73183 9.61623 5.35242 9.11797 5.07695 8.56183C4.93109 8.28074 4.70801 8.04714 4.43393 7.8885C4.22298 7.76163 4.0304 7.60644 3.8616 7.42727C3.56234 7.10462 3.35684 6.70639 3.26726 6.27553C3.17768 5.84468 3.20741 5.39755 3.35325 4.98235C3.4991 4.56715 3.75552 4.19965 4.09486 3.91946C4.43421 3.63928 4.84362 3.45704 5.27891 3.39242C5.71421 3.32779 6.15889 3.38323 6.565 3.55274C6.97111 3.72225 7.32325 3.9994 7.58343 4.35432C7.84361 4.70924 8.00195 5.12845 8.04141 5.56675C8.08086 6.00504 7.99992 6.44579 7.80731 6.84146C7.9581 7.16904 8.18145 7.45801 8.46044 7.6865Z" />
<path d="M35.8851 7.6865C35.7007 7.82024 35.5019 7.93315 35.2926 8.02316C33.037 12.585 28.3641 16.0762 23.001 16.3691V37.9998C27.0578 37.7574 30.3066 35.7138 33.037 32.5256C33.2726 32.704 33.4477 32.8656 33.6093 33.0171C33.836 33.2318 33.9943 33.5086 34.0644 33.8128C34.1345 34.117 34.1132 34.4352 34.0032 34.7274C33.8551 35.1298 33.8166 35.5643 33.8918 35.9864C33.967 36.4086 34.1531 36.8031 34.4311 37.1296C34.7091 37.456 35.0689 37.7027 35.4736 37.8442C35.8783 37.9858 36.3135 38.0171 36.7343 37.9351C37.1551 37.853 37.5466 37.6605 37.8685 37.3772C38.1904 37.0939 38.4311 36.7302 38.566 36.3232C38.701 35.9162 38.7252 35.4806 38.6363 35.0612C38.5474 34.6417 38.3485 34.2535 38.06 33.9362C37.9733 33.8409 37.8787 33.7531 37.7772 33.6736C37.7189 33.6203 37.6545 33.5739 37.5853 33.5356C37.215 32.1957 36.3363 30.9871 34.9088 29.8794C36.5154 27.1339 37.4981 24.0685 37.7873 20.9006C37.9955 20.9025 38.2034 20.916 38.4101 20.941C38.6909 20.9787 38.9559 21.0928 39.1762 21.2709C39.3965 21.4491 39.5635 21.6843 39.6591 21.951C39.8146 22.3645 40.0802 22.7276 40.4273 23.0009C40.7743 23.2742 41.1895 23.4473 41.628 23.5015C42.0664 23.5557 42.5113 23.4889 42.9144 23.3084C43.3176 23.1278 43.6636 22.8403 43.9151 22.4772C44.1666 22.114 44.3139 21.6889 44.341 21.248C44.3682 20.8071 44.2741 20.3671 44.0691 19.9758C43.8641 19.5845 43.5559 19.2568 43.178 19.0281C42.8 18.7995 42.3667 18.6786 41.9249 18.6786C41.827 18.6803 41.7292 18.687 41.632 18.6988C41.2704 18.4386 40.869 18.2385 40.4436 18.1063C39.6126 17.8463 38.7487 17.7069 37.8782 17.6922C37.7924 15.4462 37.3679 13.2262 36.6191 11.107C37.163 10.7978 37.676 10.437 38.1509 10.0297C38.6138 9.61623 38.9932 9.11797 39.2686 8.56183C39.4145 8.28074 39.6376 8.04714 39.9116 7.8885C40.1226 7.76163 40.3152 7.60644 40.484 7.42727C40.7832 7.10462 40.9887 6.70639 41.0783 6.27553C41.1679 5.84468 41.1382 5.39755 40.9923 4.98235C40.8465 4.56715 40.5901 4.19965 40.2507 3.91946C39.9114 3.63928 39.502 3.45704 39.0667 3.39242C38.6314 3.32779 38.1867 3.38323 37.7806 3.55274C37.3745 3.72225 37.0223 3.9994 36.7622 4.35432C36.502 4.70924 36.3436 5.12845 36.3042 5.56675C36.2647 6.00504 36.3457 6.44579 36.5383 6.84146C36.3875 7.16904 36.1641 7.45801 35.8851 7.6865Z" />
</svg>
