<svg width="942" height="688" viewBox="0 0 942 688" fill="none" xmlns="http://www.w3.org/2000/svg">
<path d="M848.739 242H847.739C836.869 241.988 826.448 237.664 818.761 229.978C811.075 222.291 806.751 211.87 806.739 201V187H684.739V185H808.739V201C808.751 211.167 812.728 220.928 819.824 228.208C826.92 235.489 836.576 239.715 846.739 239.987V185H875.739C879.716 184.995 883.529 183.414 886.341 180.602C889.153 177.79 890.735 173.977 890.739 170V17C890.735 13.0231 889.153 9.21044 886.341 6.39837C883.529 3.5863 879.716 2.0045 875.739 2H493.739C489.762 2.0045 485.95 3.5863 483.138 6.39837C480.325 9.21044 478.744 13.0231 478.739 17V128H476.739V17C476.744 12.4929 478.537 8.17181 481.724 4.98479C484.911 1.79777 489.232 0.00507387 493.739 0H875.739C880.246 0.00507387 884.567 1.79777 887.754 4.98479C890.941 8.17181 892.734 12.4929 892.739 17V170C892.734 174.507 890.941 178.828 887.754 182.015C884.567 185.202 880.246 186.995 875.739 187H848.739V242Z" fill="#CCCCCC"/>
<path d="M812.719 50.51C812.593 47.2836 811.224 44.2312 808.897 41.9923C806.571 39.7534 803.468 38.5019 800.239 38.5H569.239C565.924 38.5 562.744 39.817 560.4 42.1612C558.056 44.5054 556.739 47.6848 556.739 51C556.739 54.3152 558.056 57.4946 560.4 59.8388C562.744 62.183 565.924 63.5 569.239 63.5H800.239C803.553 63.4954 806.73 62.177 809.073 59.8338C811.416 57.4906 812.735 54.3138 812.739 51C812.742 50.8364 812.736 50.6728 812.719 50.51Z" fill="#E94D3D"/>
<path d="M812.719 92.51C812.593 89.2836 811.224 86.2312 808.897 83.9923C806.571 81.7534 803.468 80.5019 800.239 80.5H569.239C565.924 80.5 562.744 81.817 560.4 84.1612C558.056 86.5054 556.739 89.6848 556.739 93C556.739 96.3152 558.056 99.4946 560.4 101.839C562.744 104.183 565.924 105.5 569.239 105.5H800.239C803.553 105.495 806.73 104.177 809.073 101.834C811.416 99.4906 812.735 96.3138 812.739 93C812.742 92.8364 812.736 92.6728 812.719 92.51Z" fill="#E94D3D"/>
<path d="M812.719 134.51C812.593 131.284 811.224 128.231 808.897 125.992C806.571 123.753 803.468 122.502 800.239 122.5H569.239C567.407 122.5 565.597 122.903 563.938 123.681C562.279 124.459 560.811 125.592 559.639 127C559.125 127.623 558.67 128.293 558.279 129H668.739C672.716 129.005 676.528 130.587 679.34 133.399C682.152 136.211 683.734 140.023 683.739 144V147.5H800.239C803.553 147.495 806.73 146.177 809.073 143.834C811.416 141.491 812.735 138.314 812.739 135C812.742 134.836 812.736 134.673 812.719 134.51Z" fill="#E94D3D"/>
<path d="M24.5176 684.705C25.0616 685.151 25.6058 685.579 26.1628 686H163.567C164.59 685.579 165.609 685.147 166.624 684.705C181.13 678.392 194.631 669.986 206.697 659.755C214.71 652.967 222.08 645.959 227.424 639.391C234.879 630.226 241.745 620.238 244.938 608.858C248.125 597.478 247.173 584.433 240.054 574.996C237.85 572.093 235.14 569.612 232.055 567.671C231.543 567.347 231.025 567.036 230.494 566.745C221.638 561.978 211.308 560.735 201.574 563.266C187.81 566.822 176.372 576.752 168.211 588.397C160.05 600.037 154.751 613.405 149.531 626.625C144.233 603.029 128.189 581.894 106.517 571.149C84.8512 560.404 57.9326 560.533 36.7269 572.172C30.0546 575.857 24.0274 580.604 18.8824 586.228C18.371 586.778 17.872 587.342 17.3799 587.912C7.03621 599.888 0.565497 615.225 0.0344871 631.042C-0.204253 641.255 1.87471 651.39 6.11519 660.684C10.3557 669.979 16.6474 678.191 24.5176 684.705Z" fill="#F2F2F2"/>
<path d="M158.074 686H160.017C160.043 685.566 160.076 685.138 160.115 684.705C160.794 676.232 162.216 667.836 164.364 659.612C169.292 640.838 177.709 623.159 189.177 607.498C200.612 591.787 215.028 578.481 231.602 568.338C231.723 568.268 231.827 568.172 231.905 568.057C231.984 567.941 232.035 567.809 232.055 567.671C232.087 567.49 232.066 567.304 231.996 567.134C231.926 566.964 231.809 566.818 231.659 566.712C231.509 566.606 231.332 566.545 231.149 566.536C230.966 566.527 230.783 566.57 230.624 566.66C230.579 566.686 230.536 566.714 230.494 566.745C221.104 572.468 212.387 579.229 204.508 586.901C190.415 600.649 179.05 616.941 171.015 634.915C163.927 650.658 159.585 667.497 158.178 684.705C158.139 685.138 158.107 685.572 158.074 686Z" fill="white"/>
<path d="M17.3798 587.912C17.3939 587.919 17.4093 587.923 17.4251 587.925C18.8435 588.184 20.2686 588.456 21.6807 588.747C33.2715 591.128 44.6177 594.573 55.5751 599.039C66.5036 603.499 77.0159 608.918 86.9888 615.232C96.9745 621.542 106.391 628.712 115.131 636.658C123.872 644.593 131.89 653.289 139.09 662.644C144.472 669.653 149.365 677.024 153.735 684.705C153.981 685.132 154.22 685.566 154.46 686H156.682C156.449 685.566 156.209 685.132 155.963 684.705C150.676 675.293 144.614 666.339 137.84 657.935C130.349 648.634 122.045 640.018 113.026 632.189C104.065 624.404 94.4478 617.409 84.2813 611.281C74.0725 605.129 63.3391 599.892 52.2069 595.632C41.4039 591.502 30.2506 588.355 18.8824 586.228C18.5652 586.169 18.2543 586.111 17.9368 586.053C16.7258 585.833 16.2074 587.659 17.3798 587.912Z" fill="white"/>
<path d="M56.0182 655.525C69.549 653.664 83.2901 653.974 96.7233 656.443C110.117 658.892 123.048 663.412 135.05 669.843C141.795 673.467 148.196 677.697 154.176 682.479C155.153 683.26 153.77 684.626 152.802 683.853C142.309 675.507 130.548 668.895 117.964 664.27C105.479 659.652 92.3567 656.99 79.0598 656.377C71.536 656.032 63.9964 656.374 56.5348 657.399C56.2866 657.458 56.0252 657.421 55.8033 657.295C55.5815 657.169 55.4157 656.964 55.3396 656.72C55.2727 656.472 55.3064 656.207 55.4334 655.983C55.5605 655.76 55.7706 655.595 56.0182 655.525H56.0182Z" fill="white"/>
<path d="M667.739 129H285.739C281.232 129.006 276.912 130.799 273.725 133.986C270.539 137.173 268.746 141.493 268.739 146V299C268.746 303.507 270.539 307.827 273.725 311.014C276.912 314.201 281.232 315.994 285.739 316H312.739V371H313.739C324.609 370.989 335.031 366.665 342.718 358.979C350.404 351.292 354.728 340.87 354.739 330V316H667.739C672.246 315.994 676.566 314.201 679.753 311.014C682.94 307.827 684.733 303.507 684.739 299V146C684.733 141.493 682.94 137.173 679.753 133.986C676.566 130.799 672.246 129.006 667.739 129ZM682.739 299C682.734 302.977 681.152 306.789 678.34 309.601C675.528 312.413 671.716 313.995 667.739 314H352.739V330C352.725 340.166 348.748 349.927 341.652 357.207C334.557 364.488 324.902 368.715 314.739 368.99V314H285.739C281.762 313.995 277.95 312.413 275.138 309.601C272.326 306.789 270.744 302.977 270.739 299V146C270.744 142.023 272.326 138.211 275.138 135.399C277.95 132.587 281.762 131.005 285.739 131H667.739C671.716 131.005 675.528 132.587 678.34 135.399C681.152 138.211 682.734 142.023 682.739 146V299Z" fill="#CCCCCC"/>
<path d="M592.239 167.5H361.239C358.01 167.502 354.908 168.753 352.581 170.992C350.254 173.231 348.885 176.284 348.759 179.51C348.742 179.673 348.736 179.836 348.739 180C348.744 183.314 350.062 186.49 352.405 188.834C354.749 191.177 357.925 192.495 361.239 192.5H592.239C595.554 192.5 598.734 191.183 601.078 188.839C603.422 186.495 604.739 183.315 604.739 180C604.739 176.685 603.422 173.505 601.078 171.161C598.734 168.817 595.554 167.5 592.239 167.5Z" fill="#E64648"/>
<path d="M592.239 209.5H361.239C358.01 209.502 354.908 210.753 352.581 212.992C350.254 215.231 348.885 218.284 348.759 221.51C348.742 221.673 348.736 221.836 348.739 222C348.744 225.314 350.062 228.49 352.405 230.834C354.749 233.177 357.925 234.495 361.239 234.5H592.239C595.554 234.5 598.734 233.183 601.078 230.839C603.422 228.495 604.739 225.315 604.739 222C604.739 218.685 603.422 215.505 601.078 213.161C598.734 210.817 595.554 209.5 592.239 209.5Z" fill="#E64648"/>
<path d="M592.239 251.5H361.239C358.01 251.502 354.908 252.753 352.581 254.992C350.254 257.231 348.885 260.284 348.759 263.51C348.742 263.673 348.736 263.836 348.739 264C348.744 267.314 350.062 270.49 352.405 272.834C354.749 275.177 357.925 276.495 361.239 276.5H592.239C595.554 276.5 598.734 275.183 601.078 272.839C603.422 270.495 604.739 267.315 604.739 264C604.739 260.685 603.422 257.505 601.078 255.161C598.734 252.817 595.554 251.5 592.239 251.5Z" fill="#E64648"/>
<path d="M224.726 472.72C224.276 472.72 223.826 472.692 223.379 472.635C221.841 472.447 220.359 471.935 219.032 471.134C217.705 470.333 216.562 469.26 215.678 467.986C214.795 466.713 214.19 465.267 213.904 463.743C213.618 462.22 213.658 460.653 214.019 459.145C214.105 458.795 214.209 458.45 214.33 458.111L180.965 415.397C179.496 413.502 178.678 411.183 178.631 408.786C178.584 406.388 179.311 404.04 180.705 402.088L192.392 385.856L207.667 397.641L201.531 408.184L225.833 450.782C226.322 450.827 226.807 450.906 227.285 451.019C229.903 451.648 232.2 453.215 233.74 455.424C235.28 457.634 235.956 460.331 235.641 463.005C235.325 465.68 234.04 468.146 232.029 469.936C230.017 471.726 227.419 472.717 224.726 472.72L224.726 472.72Z" fill="#A0616A"/>
<path d="M282.467 675.118L294.727 675.117L300.559 627.829L282.465 627.83L282.467 675.118Z" fill="#A0616A"/>
<path d="M318.371 686.5L279.84 686.502L279.839 671.615L303.483 671.614C305.438 671.614 307.374 671.999 309.18 672.747C310.987 673.495 312.628 674.591 314.01 675.974C315.393 677.356 316.489 678.997 317.237 680.803C317.986 682.609 318.371 684.545 318.371 686.5Z" fill="#2F2E41"/>
<path d="M181.467 675.118L193.727 675.117L199.559 627.829L181.465 627.83L181.467 675.118Z" fill="#A0616A"/>
<path d="M217.371 686.5L178.84 686.502L178.839 671.615L202.483 671.614C204.438 671.614 206.374 671.999 208.18 672.747C209.987 673.495 211.628 674.591 213.01 675.974C214.393 677.356 215.489 678.997 216.237 680.803C216.986 682.609 217.371 684.545 217.371 686.5Z" fill="#2F2E41"/>
<path d="M188.992 388.159L216.516 398.619L223.236 379.952C224.129 377.473 224.116 374.759 223.201 372.289C222.285 369.818 220.526 367.751 218.234 366.452C215.916 365.139 213.204 364.697 210.588 365.208C207.973 365.718 205.626 367.147 203.972 369.237L188.992 388.159Z" fill="#E23537"/>
<path d="M280.287 636.945C279.188 636.944 278.121 636.577 277.253 635.903C276.386 635.228 275.767 634.284 275.495 633.219C261.769 580.708 247.833 554.388 232.889 523.953C232.515 523.194 231.909 522.574 231.159 522.184C230.408 521.793 229.553 521.652 228.717 521.781C227.881 521.91 227.108 522.302 226.51 522.9C225.913 523.499 225.522 524.273 225.394 525.109L206.87 632.158C206.685 633.352 206.072 634.438 205.146 635.214C204.22 635.99 203.043 636.403 201.835 636.376L174.333 635.706C173.666 635.692 173.009 635.543 172.4 635.268C171.792 634.993 171.246 634.597 170.796 634.105C170.32 633.633 169.955 633.061 169.73 632.429C169.504 631.798 169.423 631.124 169.492 630.458C181.948 548.313 191.755 473.957 210.615 451.273C211.138 450.778 211.737 450.37 212.39 450.066L211.818 449.979C211.654 449.953 211.219 449.886 211.213 449.449L211.208 449.025L211.638 448.944C212.325 448.92 213.01 449.023 213.659 449.248L256.704 455.873C257.896 456.056 258.981 456.667 259.756 457.591C260.532 458.516 260.945 459.69 260.918 460.897C263.258 471.844 266.844 488.368 267.165 489.182C290.131 532.843 299.042 567.225 308.305 625.934C308.497 627.179 308.21 628.45 307.503 629.493C306.796 630.535 305.721 631.271 304.493 631.553L281.409 636.818C281.041 636.903 280.665 636.945 280.287 636.945Z" fill="#2F2E41"/>
<path d="M256.132 463.031C255.745 463.031 255.36 462.986 254.985 462.896L212.606 452.815C211.957 452.664 211.345 452.381 210.809 451.983C210.274 451.586 209.825 451.084 209.491 450.506C209.146 449.909 208.925 449.249 208.842 448.564C208.759 447.88 208.815 447.185 209.007 446.523C213.576 430.68 207.584 411.04 200.428 392.177C199.518 386.661 200.409 380.998 202.971 376.029C205.532 371.059 209.627 367.048 214.647 364.588L214.763 364.533L237.012 365.656C240.665 366.614 244.054 368.387 246.924 370.843C249.793 373.299 252.068 376.374 253.579 379.835C262.155 399.906 264.61 425.661 261.085 458.57C260.955 459.794 260.378 460.927 259.463 461.75C258.549 462.574 257.362 463.03 256.132 463.031L256.132 463.031Z" fill="#E23537"/>
<path d="M261.833 417.217C259.571 417.222 257.364 416.52 255.519 415.21L239.105 403.511L250.816 388.179L261.388 394.265L303.87 369.758C303.912 369.269 303.989 368.784 304.099 368.306C304.596 366.188 305.711 364.265 307.302 362.781C308.892 361.297 310.887 360.317 313.035 359.967C315.182 359.616 317.385 359.91 319.365 360.812C321.345 361.713 323.013 363.182 324.158 365.031C325.304 366.881 325.875 369.029 325.8 371.203C325.725 373.377 325.007 375.48 323.736 377.247C322.466 379.013 320.7 380.362 318.663 381.125C316.625 381.888 314.407 382.029 312.289 381.531C311.939 381.447 311.593 381.345 311.253 381.226L268.579 414.892C266.655 416.403 264.279 417.222 261.833 417.217Z" fill="#A0616A"/>
<path d="M233.898 408.285L258.247 391.728L246.804 375.521C245.284 373.369 243.053 371.823 240.504 371.157C237.955 370.491 235.253 370.748 232.875 371.881C230.47 373.028 228.553 374.997 227.472 377.433C226.391 379.868 226.217 382.611 226.981 385.164L233.898 408.285Z" fill="#E23537"/>
<path d="M222.188 356.222C235.753 356.222 246.749 345.226 246.749 331.661C246.749 318.097 235.753 307.1 222.188 307.1C208.623 307.1 197.627 318.097 197.627 331.661C197.627 345.226 208.623 356.222 222.188 356.222Z" fill="#A0616A"/>
<path d="M224.438 356.79C220.752 356.774 217.908 352.893 218.073 349.211C218.239 345.528 220.712 342.288 223.692 340.118C226.672 337.948 230.167 336.626 233.49 335.03C236.813 333.435 240.108 331.445 242.159 328.382C243.399 326.377 244.139 324.105 244.317 321.755C244.495 319.404 244.106 317.046 243.183 314.878C241.273 310.541 237.995 306.949 233.849 304.653C227.692 301.049 220.402 299.896 213.433 301.425C206.463 302.954 200.326 307.053 196.242 312.904L192.034 324.362C187.746 329.518 187.066 337.175 189.702 343.341C192.338 349.508 197.95 354.147 204.283 356.353C210.709 358.418 217.587 358.624 224.124 356.948" fill="#2F2E41"/>
<path d="M197.9 320.017C196.217 317.422 193.922 315.281 191.217 313.783C188.512 312.285 185.48 311.476 182.388 311.426C179.296 311.376 176.239 312.088 173.487 313.499C170.735 314.909 168.373 316.975 166.608 319.514C163.653 323.764 162.58 329.004 160.549 333.765C156.869 342.291 150.177 349.163 141.752 353.068C149.129 354.365 156.479 350.612 162.377 345.995C168.275 341.377 173.462 335.741 180.067 332.209C185.264 329.44 191.101 328.1 196.985 328.323" fill="#2F2E41"/>
<path d="M404.633 688H23.6328C23.3676 688 23.1132 687.895 22.9257 687.707C22.7382 687.52 22.6328 687.265 22.6328 687C22.6328 686.735 22.7382 686.48 22.9257 686.293C23.1132 686.105 23.3676 686 23.6328 686H404.633C404.898 686 405.152 686.105 405.34 686.293C405.527 686.48 405.633 686.735 405.633 687C405.633 687.265 405.527 687.52 405.34 687.707C405.152 687.895 404.898 688 404.633 688Z" fill="#3F3D56"/>
</svg>
