<svg width="736" height="413" viewBox="0 0 736 413" fill="none" xmlns="http://www.w3.org/2000/svg">
<path d="M4.7844 269.885C4.7844 269.885 -10.0795 298.2 12.5908 311.236C23.2844 317.433 100.599 332.606 178.234 347.137C216.303 354.189 254.479 361.028 285.169 366.37C322.597 372.995 348.475 377.055 348.475 377.055H368.151L487.064 379.299L598.918 381.436L646.29 371.713L619.022 186.008L477.44 30.5428L447.818 55.5455L442.792 59.8194L364.943 97.6442L145.298 204.494L46.4892 252.576L34.9403 258.239L4.7844 269.885Z" fill="#FFE09C"/>
<path d="M726.278 359.532C726.278 359.532 699.651 156.518 622.871 85.3564C622.871 85.3564 559.779 21.2469 520.962 3.72356C520.962 3.72356 487.919 -19.6764 455.41 50.8442C455.41 50.8442 580.204 127.135 607.152 245.844L633.993 364.554L726.278 359.532Z" fill="#E7C4C3"/>
<path d="M576.198 287.07C592.095 262.205 581.177 226.853 551.812 208.111C522.447 189.368 485.755 194.331 469.859 219.196C453.962 244.062 464.881 279.413 494.246 298.156C523.61 316.899 560.302 311.936 576.198 287.07Z" fill="#FF7F8E"/>
<path d="M381.136 242.979C397.032 218.114 386.114 182.762 356.749 164.019C327.384 145.276 290.693 150.24 274.796 175.105C258.899 199.971 269.818 235.322 299.182 254.065C328.547 272.808 365.239 267.844 381.136 242.979Z" fill="#FF7F8E"/>
<path d="M364.943 97.7511C365.772 108.261 369.12 118.417 374.704 127.362C380.287 136.307 387.943 143.779 397.024 149.146C426.324 167.844 463.003 162.929 478.83 138.461C494.656 113.992 483.856 78.3047 454.448 59.6061C452.441 58.3277 450.371 57.1507 448.246 56.0798L443.22 60.3538L364.943 97.7511Z" fill="#FF7F8E"/>
<path d="M373.498 338.055C369.858 343.911 367.491 350.467 366.552 357.296C365.612 364.126 366.121 371.076 368.045 377.696L486.957 379.94C486.498 369.067 483.322 358.482 477.719 349.15C472.115 339.818 464.262 332.036 454.876 326.516C426.004 308.244 389.325 313.266 373.498 338.055Z" fill="#FF7F8E"/>
<path d="M179.731 297.132C175.21 304.639 172.698 313.182 172.435 321.939C172.173 330.697 174.17 339.374 178.234 347.138C216.303 354.19 254.479 361.028 285.17 366.371L286.132 364.982C301.958 340.193 291.051 304.825 261.751 286.127C232.45 267.428 195.664 272.343 179.731 297.132Z" fill="#FF7F8E"/>
<path d="M46.4892 252.79C51.0696 257.891 56.3216 262.348 62.1017 266.039C91.402 284.738 128.081 279.822 143.908 255.354C148.461 247.816 150.982 239.228 151.225 230.428C151.469 221.627 149.427 212.913 145.298 205.135L46.4892 252.79Z" fill="#FF7F8E"/>
<path d="M464.928 204.707L454.234 221.803C443.171 210.203 429.703 201.159 414.775 195.304L411.674 194.556C391.784 191.03 422.367 177.568 422.367 177.568C422.367 177.568 460.757 193.488 464.928 204.707Z" fill="#94CC79"/>
<path d="M406.969 250.119L396.275 267.108C385.197 255.551 371.732 246.545 356.816 240.716L353.715 239.968C333.718 236.335 364.408 222.979 364.408 222.979C364.408 222.979 402.691 238.686 406.969 250.119Z" fill="#94CC79"/>
<path d="M283.245 292.859L272.551 309.954C261.488 298.354 248.02 289.31 233.092 283.456L229.991 282.708C209.994 279.182 240.684 265.719 240.684 265.719C240.684 265.719 278.967 281.212 283.245 292.859Z" fill="#94CC79"/>
<path d="M104.021 286.447L93.3272 303.543C82.2173 291.948 68.7164 282.906 53.7608 277.044L50.6599 276.297C30.7699 272.771 61.3535 259.307 61.3535 259.307C61.3535 259.307 99.6364 275.121 104.021 286.447Z" fill="#94CC79"/>
<path d="M251.057 222.338L240.364 239.327C229.3 227.726 215.833 218.683 200.904 212.828L197.803 212.08C177.806 208.554 208.497 195.091 208.497 195.091C208.497 195.091 246.78 211.012 251.057 222.338Z" fill="#94CC79"/>
<path opacity="0.2" d="M692.166 412.209C692.166 412.209 760.926 404.729 725.851 359.532C688.6 350.446 649.633 351.109 612.713 361.455C612.713 361.455 320.03 374.491 282.068 353.548C282.068 353.548 16.8681 310.809 6.17459 297.346C6.17459 297.346 -15.2127 302.047 49.8041 330.896C114.821 359.746 322.811 389.877 322.811 389.877L543.419 407.401L622.765 397.57L692.166 412.209Z" fill="white"/>
<path d="M483.641 307.389C480.429 317.383 479.656 328 481.386 338.353C483.116 348.706 487.299 358.496 493.586 366.905C513.69 395.22 549.514 404.409 573.681 387.42C597.849 370.431 600.949 333.995 580.739 305.146C579.348 303.222 577.852 301.299 576.355 299.483L569.938 301.62L483.641 307.389Z" fill="#FF7F8E"/>
</svg>
