<svg width="35" height="35" viewBox="0 0 38 35" xmlns="http://www.w3.org/2000/svg">
<path d="M36.5071 11.97C35.5534 9.64123 34.1707 7.52547 32.4357 5.74C30.7049 3.95022 28.6539 2.52387 26.3964 1.54C24.0511 0.51625 21.5658 0 19 0C16.4342 0 13.9489 0.51625 11.6036 1.54C9.34609 2.52387 7.29509 3.95022 5.56429 5.74C3.8293 7.52547 2.44661 9.64123 1.49286 11.97C0.500446 14.3894 0 16.9531 0 19.6C0 25.4056 2.47254 30.8744 6.78147 34.6106L6.85357 34.6719C7.09955 34.8819 7.40915 35 7.72723 35H30.277C30.5951 35 30.9047 34.8819 31.1507 34.6719L31.2228 34.6106C35.5275 30.8744 38 25.4056 38 19.6C38 16.9531 37.4953 14.3894 36.5071 11.97ZM29.5772 31.675H8.42277C6.784 30.1507 5.47424 28.288 4.57848 26.2078C3.68271 24.1275 3.22097 21.8762 3.22321 19.6C3.22321 15.2513 4.86451 11.165 7.84598 8.09375C10.8275 5.01812 14.7886 3.325 19 3.325C23.2156 3.325 27.1768 5.01812 30.154 8.09375C33.1355 11.1694 34.7768 15.2556 34.7768 19.6C34.7768 24.22 32.8895 28.5906 29.5772 31.675ZM23.7288 13.5406C23.665 13.4755 23.5789 13.4389 23.4892 13.4389C23.3994 13.4389 23.3133 13.4755 23.2496 13.5406L19.6658 17.2375C18.8728 17.0187 17.9949 17.2287 17.3714 17.8719C17.1506 18.0992 16.9754 18.3693 16.8559 18.6666C16.7364 18.9639 16.6748 19.2825 16.6748 19.6044C16.6748 19.9262 16.7364 20.2449 16.8559 20.5422C16.9754 20.8395 17.1506 21.1095 17.3714 21.3369C17.5918 21.5647 17.8536 21.7454 18.1418 21.8687C18.43 21.992 18.7389 22.0555 19.0509 22.0555C19.3629 22.0555 19.6718 21.992 19.96 21.8687C20.2482 21.7454 20.51 21.5647 20.7304 21.3369C21.0257 21.0331 21.2381 20.6543 21.3461 20.2387C21.4541 19.8231 21.4538 19.3854 21.3453 18.97L24.929 15.2731C25.0605 15.1375 25.0605 14.9144 24.929 14.7787L23.7288 13.5406ZM18.067 9.1H19.933C20.1196 9.1 20.2723 8.9425 20.2723 8.75V5.25C20.2723 5.0575 20.1196 4.9 19.933 4.9H18.067C17.8804 4.9 17.7277 5.0575 17.7277 5.25V8.75C17.7277 8.9425 17.8804 9.1 18.067 9.1ZM29.0937 18.6375V20.5625C29.0937 20.755 29.2464 20.9125 29.433 20.9125H32.8259C33.0125 20.9125 33.1652 20.755 33.1652 20.5625V18.6375C33.1652 18.445 33.0125 18.2875 32.8259 18.2875H29.433C29.2464 18.2875 29.0937 18.445 29.0937 18.6375ZM29.6324 10.01L28.3134 8.64937C28.2496 8.58424 28.1635 8.5477 28.0738 8.5477C27.984 8.5477 27.8979 8.58424 27.8342 8.64937L25.4337 11.1256C25.3706 11.1914 25.3351 11.2802 25.3351 11.3728C25.3351 11.4654 25.3706 11.5542 25.4337 11.62L26.7527 12.9806C26.8842 13.1163 27.1004 13.1163 27.2319 12.9806L29.6324 10.5044C29.7638 10.3688 29.7638 10.1456 29.6324 10.01ZM10.1828 8.64937C10.119 8.58424 10.0329 8.5477 9.94319 8.5477C9.85345 8.5477 9.76734 8.58424 9.70357 8.64937L8.3846 10.01C8.32146 10.0758 8.28604 10.1646 8.28604 10.2572C8.28604 10.3498 8.32146 10.4386 8.3846 10.5044L10.785 12.9806C10.9165 13.1163 11.1328 13.1163 11.2643 12.9806L12.5833 11.62C12.7147 11.4844 12.7147 11.2612 12.5833 11.1256L10.1828 8.64937ZM8.39732 18.2875H5.00446C4.81786 18.2875 4.66518 18.445 4.66518 18.6375V20.5625C4.66518 20.755 4.81786 20.9125 5.00446 20.9125H8.39732C8.58393 20.9125 8.73661 20.755 8.73661 20.5625V18.6375C8.73661 18.445 8.58393 18.2875 8.39732 18.2875Z"/>
</svg>
