<svg width="30" height="32" viewBox="0 0 30 32" fill="none" xmlns="http://www.w3.org/2000/svg">
<path d="M25.964 0C27.839 0 29.349 1.516 29.438 3.302V32L25.87 28.969L23.912 27.188L21.771 25.323L22.662 28.261H3.94799C2.07799 28.261 0.562988 26.844 0.562988 24.959V3.308C0.562988 1.522 2.07899 0.006 3.95399 0.006H25.954L25.964 0ZM17.807 7.578H17.765L17.494 7.844C20.26 8.646 21.598 9.896 21.598 9.896C19.817 9.005 18.207 8.557 16.603 8.375C15.447 8.198 14.285 8.292 13.306 8.375H13.035C12.41 8.375 11.077 8.646 9.28999 9.359C8.66999 9.63 8.31099 9.807 8.31099 9.807C8.31099 9.807 9.64399 8.468 12.592 7.755L12.41 7.578C12.41 7.578 10.181 7.489 7.77499 9.271C7.77499 9.271 5.36899 13.464 5.36899 18.63C5.36899 18.63 6.70199 20.948 10.359 21.036C10.359 21.036 10.895 20.328 11.432 19.703C9.37999 19.078 8.57799 17.828 8.57799 17.828C8.57799 17.828 8.75999 17.917 9.02599 18.094H9.10399C9.14599 18.094 9.16699 18.115 9.18699 18.136V18.146C9.20799 18.167 9.22899 18.182 9.26499 18.182C9.70799 18.364 10.145 18.541 10.505 18.718C11.13 18.984 11.927 19.254 12.906 19.432C14.146 19.614 15.567 19.698 17.187 19.432C17.984 19.25 18.786 19.078 19.588 18.718C20.104 18.452 20.744 18.187 21.447 17.734C21.447 17.734 20.65 18.984 18.509 19.609C18.947 20.229 19.566 20.942 19.566 20.942C23.227 20.859 24.649 18.541 24.727 18.64C24.727 13.479 22.305 9.281 22.305 9.281C20.128 7.661 18.086 7.599 17.727 7.599L17.8 7.573L17.807 7.578ZM18.031 13.464C18.969 13.464 19.724 14.261 19.724 15.24C19.724 16.23 18.964 17.026 18.031 17.026C17.093 17.026 16.338 16.229 16.338 15.25C16.338 14.26 17.098 13.464 18.031 13.464ZM11.974 13.464C12.906 13.464 13.662 14.261 13.662 15.24C13.662 16.23 12.902 17.026 11.969 17.026C11.031 17.026 10.271 16.229 10.271 15.25C10.271 14.26 11.031 13.464 11.969 13.464H11.974Z" fill="white"/>
</svg>
