<svg width="35" height="35" viewBox="0 0 35 35" fill="none" xmlns="http://www.w3.org/2000/svg">
<path d="M17.4848 0.906007C8.06611 0.902199 0.4375 8.527 0.4375 17.938C0.4375 25.38 5.20967 31.7061 11.8557 34.0293C12.7507 34.254 12.6136 33.618 12.6136 33.1838V30.2322C7.44531 30.8377 7.23584 27.4176 6.88926 26.8463C6.18848 25.6504 4.53174 25.3457 5.02686 24.7745C6.20371 24.1689 7.40342 24.9268 8.79355 26.9796C9.79902 28.4688 11.7604 28.2174 12.7545 27.9699C12.9716 27.0749 13.4362 26.275 14.0761 25.6542C8.72119 24.6945 6.48936 21.4267 6.48936 17.5419C6.48936 15.6567 7.11016 13.9238 8.32891 12.526C7.55195 10.2218 8.40127 8.24897 8.51553 7.95571C10.7283 7.75767 13.0287 9.54009 13.2077 9.68101C14.4646 9.34204 15.9004 9.16304 17.5076 9.16304C19.1225 9.16304 20.5621 9.34966 21.8304 9.69243C22.2607 9.36489 24.3936 7.83384 26.4502 8.02046C26.5606 8.31372 27.3909 10.2409 26.6597 12.5146C27.8937 13.9162 28.5221 15.6643 28.5221 17.5534C28.5221 21.4458 26.275 24.7173 20.9049 25.6619C21.3648 26.1142 21.7301 26.6537 21.9792 27.2487C22.2284 27.8438 22.3564 28.4826 22.356 29.1277V33.4123C22.3864 33.7551 22.356 34.0941 22.9272 34.0941C29.6723 31.8204 34.5282 25.4486 34.5282 17.9418C34.5282 8.527 26.8958 0.906007 17.4848 0.906007Z" fill="white"/>
</svg>
