<svg width="27" height="27" viewBox="0 0 27 27" fill="none" xmlns="http://www.w3.org/2000/svg">
<path d="M16.5333 18.7354L20.3104 14.9583H6.20833V12.0417H20.3104L16.5333 8.26458L18.6042 6.20833L25.8958 13.5L18.6042 20.7917L16.5333 18.7354ZM23.7083 0.375C24.4819 0.375 25.2237 0.682291 25.7707 1.22927C26.3177 1.77625 26.625 2.51812 26.625 3.29167V10.1021L23.7083 7.18542V3.29167H3.29167V23.7083H23.7083V19.8146L26.625 16.8979V23.7083C26.625 24.4819 26.3177 25.2237 25.7707 25.7707C25.2237 26.3177 24.4819 26.625 23.7083 26.625H3.29167C2.51812 26.625 1.77625 26.3177 1.22927 25.7707C0.682291 25.2237 0.375 24.4819 0.375 23.7083V3.29167C0.375 1.67292 1.67292 0.375 3.29167 0.375H23.7083Z" fill="white"/>
</svg>
