<svg width="259" height="191" viewBox="0 0 259 191" fill="none" xmlns="http://www.w3.org/2000/svg">
<g clip-path="url(#clip0)">
<path opacity="0.1" d="M2.84668 101.31C6.94094 118.794 15.6082 133.906 29.3061 141.232C57.7725 156.455 121.972 148.605 169.886 139.583C194.096 135.042 216.072 122.494 232.276 103.959L2.84668 101.31Z" fill="#6C63FF"/>
<path d="M188.513 153.088C188.513 153.088 172.558 162.702 201.963 177.496C201.963 177.496 208.44 165.48 201.279 155.685C199.889 153.775 197.846 152.441 195.537 151.935C193.228 151.43 190.814 151.788 188.751 152.942L188.513 153.088Z" fill="#6C63FF"/>
<path d="M188.697 152.886C188.697 152.886 202.347 163.319 201.963 177.496" stroke="#535461" stroke-width="0.387424" stroke-miterlimit="10"/>
<path d="M4.31832 155.916C4.31832 155.916 -11.6366 165.529 17.7685 180.324C17.7685 180.324 24.2448 168.307 17.0846 158.512C15.6944 156.602 13.6512 155.268 11.3422 154.763C9.03317 154.257 6.61878 154.616 4.55652 155.77L4.31832 155.916Z" fill="#6C63FF"/>
<path d="M4.50244 155.713C4.50244 155.713 18.1531 166.147 17.7687 180.324" stroke="#535461" stroke-width="0.387424" stroke-miterlimit="10"/>
<path d="M202.746 178.856C202.746 178.856 197.749 161.891 203.69 149.425C206.212 144.206 206.973 138.311 205.857 132.625C205.299 129.929 204.494 127.29 203.454 124.741" stroke="#535461" stroke-width="0.774848" stroke-miterlimit="10"/>
<path d="M207.154 116.857C207.154 118.935 203.38 124.96 203.38 124.96C203.38 124.96 199.607 118.935 199.607 116.857C199.67 115.902 200.094 115.007 200.794 114.354C201.493 113.7 202.415 113.336 203.372 113.336C204.33 113.336 205.252 113.7 205.951 114.354C206.65 115.007 207.074 115.902 207.137 116.857H207.154Z" fill="#6C63FF"/>
<path d="M213.378 128.365C212.248 130.108 205.81 133.122 205.81 133.122C205.81 133.122 205.928 126.02 207.057 124.277C207.63 123.509 208.473 122.988 209.416 122.818C210.359 122.649 211.331 122.844 212.135 123.365C212.939 123.885 213.515 124.692 213.746 125.621C213.976 126.549 213.845 127.531 213.378 128.367V128.365Z" fill="#6C63FF"/>
<path d="M213.107 148.032C211.25 148.974 204.17 148.322 204.17 148.322C204.17 148.322 207.859 142.25 209.717 141.314C210.599 140.94 211.59 140.915 212.49 141.244C213.39 141.573 214.13 142.232 214.562 143.087C214.993 143.941 215.083 144.928 214.813 145.846C214.543 146.764 213.934 147.546 213.109 148.032H213.107Z" fill="#6C63FF"/>
<path d="M209.545 162.867C207.873 164.101 200.786 164.66 200.786 164.66C200.786 164.66 203.395 158.062 205.067 156.816C205.873 156.295 206.847 156.101 207.791 156.272C208.735 156.443 209.579 156.968 210.15 157.738C210.72 158.509 210.976 159.468 210.864 160.42C210.752 161.373 210.282 162.247 209.548 162.864L209.545 162.867Z" fill="#6C63FF"/>
<path d="M197.902 133.525C199.392 134.971 206.343 136.472 206.343 136.472C206.343 136.472 204.64 129.576 203.149 128.129C202.42 127.51 201.482 127.19 200.526 127.236C199.57 127.281 198.666 127.688 197.999 128.374C197.332 129.06 196.951 129.974 196.933 130.93C196.915 131.887 197.261 132.814 197.902 133.525Z" fill="#6C63FF"/>
<path d="M193.961 150.925C195.817 151.868 202.897 151.215 202.897 151.215C202.897 151.215 199.209 145.143 197.35 144.208C196.905 143.946 196.411 143.778 195.899 143.714C195.387 143.651 194.867 143.693 194.371 143.838C193.876 143.983 193.415 144.229 193.018 144.559C192.622 144.889 192.297 145.297 192.064 145.758C191.832 146.218 191.696 146.722 191.667 147.237C191.637 147.752 191.713 148.267 191.89 148.752C192.068 149.236 192.343 149.679 192.699 150.053C193.055 150.427 193.483 150.724 193.959 150.925H193.961Z" fill="#6C63FF"/>
<path d="M192.451 168.364C194.123 169.598 201.21 170.157 201.21 170.157C201.21 170.157 198.602 163.559 196.93 162.313C196.536 161.981 196.077 161.734 195.584 161.585C195.09 161.437 194.571 161.392 194.059 161.452C193.547 161.512 193.053 161.676 192.607 161.934C192.161 162.193 191.772 162.539 191.466 162.953C191.159 163.367 190.94 163.84 190.823 164.341C190.706 164.843 190.694 165.363 190.786 165.87C190.878 166.377 191.073 166.859 191.359 167.288C191.645 167.716 192.016 168.082 192.449 168.361L192.451 168.364Z" fill="#6C63FF"/>
<path opacity="0.25" d="M207.154 116.857C207.154 118.935 203.38 124.96 203.38 124.96C203.38 124.96 199.607 118.935 199.607 116.857C199.67 115.902 200.094 115.007 200.794 114.354C201.493 113.7 202.415 113.336 203.372 113.336C204.33 113.336 205.252 113.7 205.951 114.354C206.65 115.007 207.074 115.902 207.137 116.857H207.154Z" fill="black"/>
<path opacity="0.25" d="M213.378 128.365C212.248 130.108 205.81 133.122 205.81 133.122C205.81 133.122 205.928 126.02 207.057 124.277C207.63 123.509 208.473 122.988 209.416 122.818C210.359 122.649 211.331 122.844 212.135 123.365C212.939 123.885 213.515 124.692 213.746 125.621C213.976 126.549 213.845 127.531 213.378 128.367V128.365Z" fill="black"/>
<path opacity="0.25" d="M213.107 148.032C211.25 148.974 204.17 148.322 204.17 148.322C204.17 148.322 207.859 142.25 209.717 141.314C210.599 140.94 211.59 140.915 212.49 141.244C213.39 141.573 214.13 142.232 214.562 143.087C214.993 143.941 215.083 144.928 214.813 145.846C214.543 146.764 213.934 147.546 213.109 148.032H213.107Z" fill="black"/>
<path opacity="0.25" d="M209.545 162.867C207.873 164.101 200.786 164.66 200.786 164.66C200.786 164.66 203.395 158.062 205.067 156.816C205.873 156.295 206.847 156.101 207.791 156.272C208.735 156.443 209.579 156.968 210.15 157.738C210.72 158.509 210.976 159.468 210.864 160.42C210.752 161.373 210.282 162.247 209.548 162.864L209.545 162.867Z" fill="black"/>
<path opacity="0.25" d="M197.902 133.525C199.392 134.971 206.343 136.472 206.343 136.472C206.343 136.472 204.64 129.576 203.149 128.129C202.42 127.51 201.482 127.19 200.526 127.236C199.57 127.281 198.666 127.688 197.999 128.374C197.332 129.06 196.951 129.974 196.933 130.93C196.915 131.887 197.261 132.814 197.902 133.525Z" fill="black"/>
<path opacity="0.25" d="M193.961 150.925C195.817 151.868 202.897 151.215 202.897 151.215C202.897 151.215 199.209 145.143 197.35 144.208C196.905 143.946 196.411 143.778 195.899 143.714C195.387 143.651 194.867 143.693 194.371 143.838C193.876 143.983 193.415 144.229 193.018 144.559C192.622 144.889 192.297 145.297 192.064 145.758C191.832 146.218 191.696 146.722 191.667 147.237C191.637 147.752 191.713 148.267 191.89 148.752C192.068 149.236 192.343 149.679 192.699 150.053C193.055 150.427 193.483 150.724 193.959 150.925H193.961Z" fill="black"/>
<path opacity="0.25" d="M192.451 168.364C194.123 169.598 201.21 170.157 201.21 170.157C201.21 170.157 198.602 163.559 196.93 162.313C196.536 161.981 196.077 161.734 195.584 161.585C195.09 161.437 194.571 161.392 194.059 161.452C193.547 161.512 193.053 161.676 192.607 161.934C192.161 162.193 191.772 162.539 191.466 162.953C191.159 163.367 190.94 163.84 190.823 164.341C190.706 164.843 190.694 165.363 190.786 165.87C190.878 166.377 191.073 166.859 191.359 167.288C191.645 167.716 192.016 168.082 192.449 168.361L192.451 168.364Z" fill="black"/>
<path d="M214.302 179.179C214.302 179.179 209.305 162.214 215.246 149.747C217.769 144.529 218.529 138.634 217.413 132.947C216.863 130.252 216.066 127.613 215.034 125.063" stroke="#535461" stroke-width="0.774848" stroke-miterlimit="10"/>
<path d="M218.72 117.177C218.72 119.255 214.946 125.28 214.946 125.28C214.946 125.28 211.173 119.255 211.173 117.177C211.236 116.223 211.66 115.328 212.36 114.674C213.059 114.02 213.98 113.657 214.938 113.657C215.896 113.657 216.818 114.02 217.517 114.674C218.216 115.328 218.64 116.223 218.703 117.177H218.72Z" fill="#6C63FF"/>
<path d="M224.943 128.687C223.814 130.431 217.368 133.435 217.368 133.435C217.368 133.435 217.486 126.334 218.616 124.59C219.188 123.822 220.031 123.301 220.974 123.132C221.917 122.962 222.889 123.158 223.693 123.678C224.497 124.199 225.073 125.005 225.304 125.934C225.535 126.863 225.403 127.845 224.936 128.68L224.943 128.687Z" fill="#6C63FF"/>
<path d="M224.679 148.355C222.823 149.297 215.743 148.645 215.743 148.645C215.743 148.645 219.432 142.573 221.29 141.637C222.172 141.266 223.161 141.243 224.059 141.572C224.957 141.902 225.696 142.56 226.127 143.414C226.557 144.267 226.647 145.252 226.379 146.17C226.11 147.087 225.503 147.868 224.679 148.355Z" fill="#6C63FF"/>
<path d="M221.111 163.19C219.439 164.424 212.352 164.983 212.352 164.983C212.352 164.983 214.96 158.385 216.633 157.139C217.438 156.618 218.413 156.423 219.357 156.595C220.301 156.766 221.144 157.291 221.715 158.061C222.286 158.832 222.542 159.791 222.43 160.743C222.318 161.695 221.848 162.569 221.114 163.187L221.111 163.19Z" fill="#6C63FF"/>
<path d="M209.468 133.848C210.958 135.294 217.909 136.795 217.909 136.795C217.909 136.795 216.206 129.898 214.715 128.452C213.986 127.832 213.048 127.513 212.092 127.559C211.135 127.604 210.232 128.011 209.565 128.697C208.898 129.383 208.517 130.297 208.499 131.253C208.481 132.209 208.827 133.137 209.468 133.848Z" fill="#6C63FF"/>
<path d="M205.525 151.248C207.381 152.191 214.461 151.538 214.461 151.538C214.461 151.538 210.765 145.466 208.916 144.531C208.034 144.156 207.043 144.131 206.143 144.461C205.244 144.79 204.503 145.448 204.072 146.303C203.64 147.157 203.55 148.144 203.82 149.062C204.09 149.981 204.699 150.762 205.525 151.248Z" fill="#6C63FF"/>
<path d="M204.015 168.687C205.687 169.921 212.774 170.48 212.774 170.48C212.774 170.48 210.166 163.882 208.493 162.636C208.099 162.304 207.641 162.056 207.147 161.908C206.653 161.76 206.135 161.715 205.623 161.775C205.111 161.835 204.616 161.999 204.17 162.257C203.724 162.515 203.336 162.862 203.029 163.276C202.722 163.69 202.504 164.162 202.387 164.664C202.27 165.166 202.257 165.686 202.349 166.193C202.441 166.699 202.637 167.182 202.923 167.611C203.209 168.039 203.579 168.404 204.012 168.684L204.015 168.687Z" fill="#6C63FF"/>
<path opacity="0.1" d="M254.106 19.0194H227.816C227.213 19.0194 226.635 18.7803 226.209 18.3545C225.783 17.9288 225.544 17.3513 225.544 16.7492C225.544 16.1471 225.783 15.5697 226.209 15.1439C226.635 14.7182 227.213 14.479 227.816 14.479H232.361C231.758 14.479 231.18 14.2398 230.754 13.8141C230.328 13.3883 230.089 12.8109 230.089 12.2088C230.089 11.6067 230.328 11.0292 230.754 10.6035C231.18 10.1777 231.758 9.93856 232.361 9.93856H229.113C228.511 9.93856 227.933 9.69938 227.506 9.27363C227.08 8.84788 226.841 8.27044 226.841 7.66834C226.841 7.06624 227.08 6.4888 227.506 6.06306C227.933 5.63731 228.511 5.39812 229.113 5.39812H242.839C239.795 3.98439 236.236 2.97828 232.137 2.45049C194.722 -2.35149 181.364 0.824698 176.652 4.09985C170.838 8.12898 164.353 11.0931 157.421 12.521C134.332 17.2735 91.1608 22.9967 52.0413 10.6761C32.5936 4.54988 18.1386 14.8984 9.47607 32.1836H258.672C258.346 27.1602 257.372 22.5231 255.584 18.461C255.175 18.819 254.65 19.0173 254.106 19.0194Z" fill="#6C63FF"/>
<path opacity="0.1" d="M0.627285 64.8196C-0.382008 74.988 -0.038619 85.2451 1.64849 95.3233L232.462 103.747C238.888 96.3626 244.282 88.1433 248.5 79.3128L0.627285 64.8196ZM91.8991 86.5793H87.3638C87.9665 86.5793 88.5444 86.8185 88.9706 87.2443C89.3967 87.67 89.6361 88.2475 89.6361 88.8496C89.6361 89.4517 89.3967 90.0291 88.9706 90.4549C88.5444 90.8806 87.9665 91.1198 87.3638 91.1198H61.0742C60.4715 91.1198 59.8936 90.8806 59.4674 90.4549C59.0413 90.0291 58.8019 89.4517 58.8019 88.8496C58.8019 88.2475 59.0413 87.67 59.4674 87.2443C59.8936 86.8185 60.4715 86.5793 61.0742 86.5793H65.6189C65.0163 86.5793 64.4383 86.3402 64.0121 85.9144C63.586 85.4887 63.3466 84.9112 63.3466 84.3091C63.3466 83.707 63.586 83.1296 64.0121 82.7038C64.4383 82.2781 65.0163 82.0389 65.6189 82.0389H62.3714C61.7687 82.0389 61.1907 81.7997 60.7646 81.374C60.3384 80.9482 60.099 80.3708 60.099 79.7687C60.099 79.1666 60.3384 78.5891 60.7646 78.1634C61.1907 77.7376 61.7687 77.4985 62.3714 77.4985H88.6609C89.2636 77.4985 89.8416 77.7376 90.2677 78.1634C90.6939 78.5891 90.9333 79.1666 90.9333 79.7687C90.9333 80.3708 90.6939 80.9482 90.2677 81.374C89.8416 81.7997 89.2636 82.0389 88.6609 82.0389H91.8991C92.5017 82.0389 93.0797 82.2781 93.5059 82.7038C93.932 83.1296 94.1714 83.707 94.1714 84.3091C94.1714 84.9112 93.932 85.4887 93.5059 85.9144C93.0797 86.3402 92.5017 86.5793 91.8991 86.5793V86.5793Z" fill="#6C63FF"/>
<path opacity="0.1" d="M258.681 32.3533L6.6837 38.4794C3.61772 46.3516 1.5871 55.2534 0.648438 64.478H254.266C255.924 59.0586 257.15 53.5168 257.933 47.9043C258.681 42.485 258.985 37.233 258.681 32.3533ZM51.8055 52.4141H47.2702C47.8728 52.4141 48.4508 52.6533 48.877 53.0791C49.3031 53.5048 49.5425 54.0823 49.5425 54.6843C49.5425 55.2864 49.3031 55.8639 48.877 56.2896C48.4508 56.7154 47.8728 56.9546 47.2702 56.9546H20.9806C20.3779 56.9546 19.7999 56.7154 19.3738 56.2896C18.9476 55.8639 18.7082 55.2864 18.7082 54.6843C18.7082 54.0823 18.9476 53.5048 19.3738 53.0791C19.7999 52.6533 20.3779 52.4141 20.9806 52.4141H25.5253C24.9226 52.4141 24.3447 52.1749 23.9185 51.7492C23.4924 51.3234 23.2529 50.746 23.2529 50.1439C23.2529 49.5418 23.4924 48.9644 23.9185 48.5386C24.3447 48.1129 24.9226 47.8737 25.5253 47.8737H22.2777C21.6751 47.8737 21.0971 47.6345 20.6709 47.2088C20.2448 46.783 20.0054 46.2056 20.0054 45.6035C20.0054 45.0014 20.2448 44.4239 20.6709 43.9982C21.0971 43.5724 21.6751 43.3333 22.2777 43.3333H48.5673C49.17 43.3333 49.748 43.5724 50.1741 43.9982C50.6003 44.4239 50.8397 45.0014 50.8397 45.6035C50.8397 46.2056 50.6003 46.783 50.1741 47.2088C49.748 47.6345 49.17 47.8737 48.5673 47.8737H51.8055C52.4081 47.8737 52.9861 48.1129 53.4123 48.5386C53.8384 48.9644 54.0778 49.5418 54.0778 50.1439C54.0778 50.746 53.8384 51.3234 53.4123 51.7492C52.9861 52.1749 52.4081 52.4141 51.8055 52.4141Z" fill="#6C63FF"/>
<path d="M129.792 191C199.217 191 255.498 187.519 255.498 183.224C255.498 178.93 199.217 175.449 129.792 175.449C60.3675 175.449 4.0874 178.93 4.0874 183.224C4.0874 187.519 60.3675 191 129.792 191Z" fill="#6C63FF"/>
<path d="M170.539 63.4083C170.539 63.4083 155.961 49.7021 153.855 47.6522C153.122 46.9454 152.428 46.2385 151.837 45.6424C150.698 44.5049 149.239 43.7413 147.655 43.4534C142.193 42.4191 136.606 39.0638 136.606 39.0638C136.575 39.0237 136.544 38.9884 136.516 38.946C136.043 38.2845 135.695 37.5418 135.49 36.7547C135.459 36.6393 135.429 36.5191 135.403 36.3966C135.491 36.2835 135.577 36.168 135.66 36.0502C135.755 36.0169 135.848 35.9751 135.936 35.9253C136.627 35.5318 137.016 34.8038 137.278 34.0875C137.514 33.4536 137.702 32.7538 138.264 32.3415C138.465 32.2302 138.646 32.086 138.799 31.915C138.913 31.6903 138.956 31.4367 138.924 31.187C138.924 29.5777 138.667 28.343 139.042 26.7738C139.641 24.262 140.191 21.1188 138.292 19.2551C137.312 18.309 136.063 17.6878 134.717 17.4761C133.497 17.2829 131.693 18.9417 130.457 18.8898C127.309 18.7697 124.655 15.9328 121.663 16.8494C120.36 17.2443 119.224 18.0576 118.432 19.1632C116.955 21.2649 117.097 23.984 117.309 26.491C117.306 26.6819 117.363 26.869 117.472 27.0259C117.582 27.1555 117.759 27.2238 117.868 27.3534C117.984 27.5254 118.028 27.736 117.99 27.9401C117.956 28.3458 117.857 28.7434 117.698 29.1182C117.657 29.1807 117.632 29.2519 117.624 29.326C117.616 29.4002 117.626 29.4751 117.653 29.5447C117.712 29.6224 117.795 29.6787 117.889 29.7049C118.016 29.7476 118.146 29.7783 118.278 29.7968C118.257 30.0041 118.238 30.2115 118.231 30.4212C118.231 30.539 118.231 30.6568 118.231 30.777C118.237 32.3081 118.624 33.8138 119.358 35.1581C120.091 36.5024 121.148 37.6431 122.434 38.4771C122.46 38.6468 122.488 38.8211 122.514 39.0025C122.594 39.561 122.667 40.1807 122.722 40.8545C122.722 40.9771 122.74 41.0902 122.75 41.2245L122.686 41.0949L112.545 46.0618C111.796 46.2349 111.096 46.5775 110.5 47.0632L110.3 47.1621V47.221C110.216 47.2902 110.131 47.364 110.045 47.4425L101.246 37.5134L80.7271 55.3076L92.0098 67.4445L104.689 66.3889C104.064 70.6772 103.637 73.9642 103.637 73.9642C103.637 73.9642 101.319 83.8909 112.55 81.9918C112.476 88.2523 109.793 98.6998 109.793 98.6998C110.105 99.1077 110.472 99.4701 110.884 99.7766L110.821 100.203L110.113 105.003C110.113 105.003 105.901 116.661 105.255 127.059C104.609 137.457 103.797 143.287 103.797 143.287L102.34 164.085L100.29 173.595C96.9146 177.283 92.9838 180.423 88.6396 182.902C88.4479 183.003 88.2784 183.142 88.141 183.31C88.0037 183.478 87.9013 183.672 87.8398 183.88C87.7783 184.088 87.7589 184.306 87.7829 184.522C87.8068 184.737 87.8736 184.946 87.9793 185.135C88.8094 186.563 91.3636 188.045 99.0993 185.67C111.41 181.9 110.276 182.046 110.276 182.046C110.276 182.046 110.458 176.999 109.934 174.007C109.918 173.917 109.901 173.83 109.885 173.743C112.833 170.423 111.408 165.025 111.408 165.025C111.408 165.025 117.238 153.682 114.474 146.277C114.474 146.277 113.825 139.974 117.229 136.981C117.276 136.939 117.325 136.892 117.375 136.842L117.42 136.795L117.531 136.677L117.58 136.623L117.71 136.472L117.738 136.439C117.79 136.376 117.844 136.307 117.898 136.237L117.941 136.18L118.078 136.027L118.13 135.952L118.257 135.765L118.299 135.704L118.472 135.443L118.505 135.391L118.648 135.155L118.703 135.066L118.835 134.844L118.884 134.759L119.066 134.444L119.248 134.118L119.299 134.022L119.439 133.765L119.493 133.661L119.66 133.343L119.681 133.303L119.875 132.926L119.922 132.834L120.073 132.535L120.13 132.422L120.288 132.102L120.328 132.021L120.526 131.609L120.559 131.541L120.724 131.19L120.781 131.07L120.934 130.742L120.983 130.636L121.186 130.195L121.382 129.759L121.436 129.639L121.589 129.293L121.641 129.173L121.851 128.723V128.704L122.056 128.233L122.101 128.131L122.262 127.759L122.316 127.634L122.483 127.236L122.516 127.161L122.719 126.689L122.752 126.612L122.92 126.211L122.974 126.081L123.127 125.707L123.172 125.598L123.368 125.127L123.384 125.087L123.561 124.651L123.615 124.517L123.759 124.159L123.811 124.029L123.981 123.6L123.997 123.556L124.181 123.084L124.236 122.948L124.368 122.611L124.424 122.462L124.563 122.104L124.604 121.998L124.776 121.553L124.823 121.43L124.948 121.105L125.012 120.94L125.122 120.653L125.181 120.497L125.337 120.085L125.382 119.965L125.495 119.663L125.559 119.496L125.653 119.244L125.717 119.072L125.823 118.787L125.891 118.603L125.997 118.315L126.066 118.132L126.139 117.934L126.207 117.745L126.266 117.583L126.424 117.154L126.45 117.081L126.523 116.878L126.573 116.744L126.648 116.539L126.684 116.442C127.361 114.578 127.776 113.379 127.776 113.379C127.776 113.379 130.842 124.093 130.37 127.401C129.898 130.709 133.285 142.999 133.285 142.999C133.285 142.999 131.342 155.289 132.476 158.282C133.61 161.274 130.856 172.461 130.856 172.461C130.856 172.461 131.066 172.577 131.422 172.753L131.401 173.057C131.224 175.517 130.839 180.244 130.37 182.072C129.721 184.593 130.047 187.272 135.228 186.957C140.41 186.641 140.573 183.491 140.573 183.491C140.573 183.491 138.863 177.982 138.653 174.733C138.653 174.627 138.653 174.523 138.639 174.422L138.785 174.367L138.827 174.351C138.886 174.325 138.943 174.299 138.997 174.271C139.049 174.243 139.096 174.214 139.146 174.184L139.188 174.155C139.229 174.127 139.269 174.097 139.308 174.066L139.337 174.042C139.384 174.003 139.429 173.962 139.471 173.92L139.502 173.889C139.535 173.853 139.567 173.816 139.599 173.778L139.632 173.736C139.669 173.686 139.707 173.635 139.742 173.578C141.523 170.751 141.686 164.754 141.686 164.754C141.686 164.754 145.249 144.587 143.955 141.899C142.66 139.21 143.306 132.919 143.306 132.919C143.306 132.919 141.848 123.466 143.469 118.897C144.681 115.476 145.44 103.662 145.405 98.0094C145.405 97.8916 145.405 97.7761 145.405 97.663C145.405 97.623 145.405 97.5829 145.405 97.5429C146.613 96.0443 147.528 93.4148 146.877 88.806C146.839 88.5444 146.811 88.2806 146.782 88.0119C148.622 86.6383 150.438 85.0243 150.438 85.0243L151.065 84.3786L151.266 84.1713C151.44 84.2444 151.624 84.3103 151.815 84.3692C152.523 84.6897 153.028 84.8687 153.028 84.8687C153.028 84.8687 162.261 77.3053 169.225 73.6814C176.19 70.0575 170.539 63.4083 170.539 63.4083ZM159.525 70.0246C159.525 70.0246 149.806 76.179 148.03 79.3222C147.927 79.4982 147.848 79.6867 147.794 79.883L147.558 79.9819L147.261 80.095C148.749 71.6126 152.733 63.2504 152.733 63.2504C152.733 63.2504 155.799 65.9294 157.921 67.0204C160.044 68.1113 159.525 70.0269 159.525 70.0269V70.0246Z" fill="url(#paint0_linear)"/>
<path d="M100.09 184.695C92.6277 187.051 90.1632 185.581 89.3637 184.165C89.1601 183.786 89.1128 183.342 89.2318 182.929C89.3507 182.516 89.6265 182.165 90.0004 181.952C94.2415 179.462 98.0621 176.317 101.321 172.636C102.151 171.693 102.587 171.116 102.587 171.116C102.587 171.116 108.368 170.023 109.774 171.116C110.125 171.389 110.37 172.153 110.538 173.142C111.042 176.106 110.868 181.106 110.868 181.106C110.868 181.106 111.962 180.948 100.09 184.695Z" fill="#5B5877"/>
<path d="M140.082 182.508C140.082 182.508 139.927 185.63 134.927 185.941C129.927 186.252 129.615 183.599 130.24 181.104C130.693 179.294 131.064 174.612 131.233 172.174C131.297 171.248 131.332 170.647 131.332 170.647C131.332 170.647 139.144 169.867 138.363 172.061C138.209 172.641 138.164 173.245 138.231 173.842C138.434 177.054 140.082 182.508 140.082 182.508Z" fill="#5B5877"/>
<path opacity="0.1" d="M110.531 173.142L110.392 173.302C107.422 176.58 101.175 173.302 101.175 173.302L101.314 172.638C102.144 171.695 102.58 171.118 102.58 171.118C102.58 171.118 108.361 170.025 109.767 171.118C110.127 171.389 110.373 172.153 110.531 173.142Z" fill="black"/>
<path opacity="0.1" d="M138.361 172.051C138.207 172.632 138.162 173.236 138.228 173.833C136.186 174.539 132.568 172.867 131.231 172.183C131.295 171.257 131.33 170.656 131.33 170.656C131.33 170.656 139.146 169.867 138.361 172.051Z" fill="black"/>
<path d="M143.363 141.305C144.613 143.958 141.177 163.925 141.177 163.925C141.177 163.925 141.021 169.855 139.302 172.664C137.582 175.473 130.71 171.571 130.71 171.571C130.71 171.571 133.365 160.496 132.271 157.523C131.177 154.549 133.052 142.389 133.052 142.389C133.052 142.389 129.771 130.214 130.241 126.937C130.71 123.659 127.741 113.035 127.741 113.035C127.741 113.035 120.866 133.482 117.585 136.446C114.305 139.411 114.93 145.655 114.93 145.655C117.585 152.989 111.96 164.229 111.96 164.229C111.96 164.229 113.375 169.69 110.399 172.968C107.423 176.245 101.182 172.968 101.182 172.968L103.22 163.312L104.635 142.709C104.635 142.709 105.416 136.934 106.05 126.633C106.684 116.331 110.736 104.781 110.736 104.781L111.415 100.026L111.986 96.0396C111.986 96.0396 143.7 94.9463 144.481 94.7908C144.677 94.7507 144.776 95.943 144.785 97.8209C144.82 103.422 144.078 115.123 142.917 118.513C141.356 123.04 142.761 132.415 142.761 132.415C142.761 132.415 142.113 138.652 143.363 141.305Z" fill="#5F5D7E"/>
<g opacity="0.05">
<path opacity="0.05" d="M126.023 113.054C126.023 113.054 119.149 133.501 115.868 136.465C112.587 139.429 113.212 145.673 113.212 145.673C115.868 153.008 110.243 164.248 110.243 164.248C110.243 164.248 111.658 169.709 108.682 172.987C107.929 173.797 106.902 174.301 105.8 174.4C107.451 174.572 109.194 174.323 110.399 172.987C113.368 169.709 111.96 164.248 111.96 164.248C111.96 164.248 117.585 153.011 114.929 145.673C114.929 145.673 114.304 139.429 117.585 136.465C120.106 134.187 124.745 121.595 126.762 115.879C126.347 114.211 126.023 113.054 126.023 113.054Z" fill="black"/>
<path opacity="0.05" d="M142.738 132.408C142.738 132.408 141.322 123.044 142.893 118.506C144.072 115.116 144.794 103.415 144.761 97.8138C144.761 95.9289 144.653 94.7507 144.457 94.7837C144.36 94.8026 143.778 94.8379 142.837 94.8827C142.969 95.2031 143.035 96.2776 143.044 97.8162C143.08 103.417 142.337 115.118 141.176 118.509C139.615 123.035 141.021 132.41 141.021 132.41C141.021 132.41 140.396 138.654 141.646 141.307C142.896 143.96 139.459 163.927 139.459 163.927C139.459 163.927 139.304 169.858 137.584 172.666C137.426 172.916 137.216 173.129 136.969 173.292C136.722 173.454 136.443 173.562 136.15 173.609C137.488 173.807 138.705 173.642 139.301 172.666C141.021 169.858 141.176 163.927 141.176 163.927C141.176 163.927 144.612 143.949 143.363 141.307C142.113 138.666 142.738 132.408 142.738 132.408Z" fill="black"/>
</g>
<path d="M138.676 41.2598L137.582 52.0277C137.582 52.0277 120.24 55.7741 122.115 49.6856C123.002 46.804 123.059 43.7103 122.854 41.2527C122.799 40.5883 122.731 39.9709 122.653 39.4172C122.526 38.4609 122.347 37.5123 122.115 36.5756C122.115 36.5756 135.559 26.4297 134.926 33.2981C134.782 34.5962 134.865 35.9096 135.174 37.1788C135.371 37.9559 135.706 38.691 136.165 39.3489C137.271 40.9087 138.676 41.2598 138.676 41.2598Z" fill="#FDC2CC"/>
<path opacity="0.1" d="M135.177 37.1812C135.052 37.3508 134.92 37.5181 134.785 37.6783C133.328 39.4037 131.288 40.5345 129.051 40.856C126.815 41.1774 124.538 40.6671 122.653 39.4219C122.527 38.4656 122.347 37.517 122.116 36.5803C122.116 36.5803 135.559 26.4344 134.927 33.3028C134.783 34.6003 134.868 35.9129 135.177 37.1812V37.1812Z" fill="black"/>
<path d="M136.958 31.2694C136.958 33.7116 135.986 36.0537 134.258 37.7805C132.53 39.5074 130.185 40.4775 127.741 40.4775C125.296 40.4775 122.952 39.5074 121.223 37.7805C119.495 36.0537 118.524 33.7116 118.524 31.2694C118.524 31.1516 118.524 31.0338 118.524 30.916C118.618 28.5076 119.654 26.2322 121.409 24.5783C123.164 22.9244 125.498 22.024 127.911 22.0702C130.323 22.1165 132.62 23.1058 134.311 24.8258C136.001 26.5457 136.949 28.8591 136.95 31.2694H136.958Z" fill="#FDC2CC"/>
<path opacity="0.1" d="M144.761 97.8256C143.971 98.8847 142.795 99.59 141.488 99.7883L134.309 102.298H134.292L132.115 103.059L131.203 100.816L130.085 98.0636V103.059C130.085 103.059 116.368 104.001 111.392 100.022L111.962 96.0349C111.962 96.0349 143.676 94.9416 144.457 94.7861C144.653 94.7554 144.752 95.9453 144.761 97.8256Z" fill="black"/>
<path opacity="0.1" d="M138.676 41.2598L137.582 52.0277C137.582 52.0277 120.24 55.7741 122.115 49.6856C123.002 46.804 123.059 43.7103 122.854 41.2527C123.153 41.8795 125.358 46.3139 128.21 47.0844C128.565 47.1837 128.934 47.2188 129.302 47.1881C129.908 47.1162 130.486 46.8925 130.983 46.5377C133.549 44.8342 135.7 40.3503 136.172 39.3513C137.271 40.9087 138.676 41.2598 138.676 41.2598Z" fill="black"/>
<path d="M167.735 73.7238C161.018 77.3147 152.113 84.798 152.113 84.798C152.113 84.798 145.551 82.4559 147.271 79.3363C148.99 76.2167 158.355 70.1282 158.355 70.1282C158.355 70.1282 158.827 68.255 156.794 67.1617C154.761 66.0684 151.794 63.4153 151.794 63.4153C151.794 63.4153 144.764 78.5541 146.169 88.6999C147.575 98.8458 141.483 99.3029 141.483 99.3029L134.304 101.812H134.288L132.111 102.573L131.198 100.33L130.08 97.5782V102.573C130.08 102.573 114.144 103.667 110.396 98.5159C110.396 98.5159 113.833 84.7815 112.896 79.4753C111.96 74.1691 110.866 47.4802 110.866 47.4802L122.816 41.4718C122.816 41.4718 125.153 46.5684 128.219 47.4001C128.574 47.4994 128.944 47.5345 129.311 47.5038C129.918 47.432 130.496 47.2083 130.993 46.8535C133.887 44.9331 136.264 39.4667 136.264 39.4667C136.264 39.4667 141.653 42.789 146.922 43.8139C148.458 44.1032 149.867 44.8605 150.955 45.9817C151.525 46.5778 152.195 47.2634 152.903 47.9727C154.933 50.0014 168.994 63.5803 168.994 63.5803C168.994 63.5803 174.445 70.1329 167.735 73.7238Z" fill="#D39999"/>
<path d="M152.275 82.152L150.224 84.3221L149.62 84.963C149.62 84.963 144.153 89.9581 142.745 89.8003C141.337 89.6424 138.995 80.1233 141.802 80.7477C143.509 81.127 145.507 80.5286 146.809 79.9984C147.286 79.8073 147.753 79.5886 148.205 79.3434L152.275 82.152Z" fill="#FDC2CC"/>
<path opacity="0.1" d="M136.957 31.2694C136.961 33.4445 136.19 35.5499 134.783 37.2095C134.542 37.2326 134.3 37.1898 134.082 37.0856C133.863 36.9814 133.678 36.8198 133.545 36.618C133.285 36.1633 133.394 35.5931 133.222 35.103C133.049 34.6129 132.658 34.276 132.41 33.8401C131.783 32.7421 132.047 31.0786 130.899 30.4895C130.37 30.2209 129.731 30.3104 129.141 30.4094C127.983 30.6003 126.818 30.9796 125.677 31.1375C124.375 31.3213 123.203 30.4754 121.918 30.4565C120.771 30.4377 119.62 31.1092 118.533 30.916C118.628 28.5076 119.664 26.2322 121.419 24.5783C123.174 22.9244 125.508 22.024 127.92 22.0702C130.332 22.1165 132.63 23.1058 134.32 24.8257C136.01 26.5457 136.958 28.8591 136.96 31.2694H136.957Z" fill="black"/>
<path d="M129.141 29.785C129.731 29.6884 130.37 29.5965 130.898 29.8675C132.047 30.4542 131.783 32.1177 132.41 33.2157C132.658 33.6516 133.059 34.0073 133.224 34.4786C133.389 34.9498 133.287 35.5389 133.547 35.9936C133.922 36.651 134.938 36.7476 135.606 36.3565C136.273 35.9654 136.646 35.2467 136.898 34.5351C137.12 33.9084 137.306 33.2157 137.842 32.8057C138.036 32.695 138.211 32.5524 138.358 32.3839C138.469 32.1607 138.511 31.9101 138.481 31.6629C138.481 30.0701 138.233 28.8354 138.594 27.2921C139.172 24.8039 139.7 21.689 137.87 19.8441C136.933 18.9113 135.727 18.2949 134.422 18.0816C133.243 17.8884 131.507 19.5331 130.313 19.4954C127.278 19.3752 124.717 16.5666 121.823 17.4737C120.558 17.8708 119.461 18.6774 118.705 19.7663C117.29 21.8492 117.417 24.5401 117.623 27.0259C117.62 27.2146 117.675 27.3997 117.781 27.556C117.887 27.6833 118.059 27.7516 118.163 27.8812C118.274 28.0524 118.317 28.2596 118.281 28.4608C118.249 28.8657 118.154 29.2632 118 29.6389C117.961 29.7017 117.937 29.7726 117.93 29.8461C117.922 29.9196 117.932 29.9938 117.958 30.063C118.016 30.1417 118.099 30.1983 118.193 30.2233C119.373 30.6474 120.646 29.8298 121.908 29.851C123.17 29.8722 124.368 30.7157 125.67 30.5319C126.818 30.3552 127.983 29.9759 129.141 29.785Z" fill="#865A61"/>
<path opacity="0.05" d="M134.311 101.829H134.295L132.038 102.668L131.203 100.347L127.665 90.493L128.219 47.4001C128.574 47.4994 128.944 47.5345 129.311 47.5038C129.918 47.432 130.496 47.2083 130.993 46.8535V46.8535L130.323 89.2654L134.311 101.829Z" fill="black"/>
<path d="M129.929 49.5325C130.188 49.5325 130.399 49.3225 130.399 49.0636C130.399 48.8046 130.188 48.5947 129.929 48.5947C129.67 48.5947 129.46 48.8046 129.46 49.0636C129.46 49.3225 129.67 49.5325 129.929 49.5325Z" fill="white"/>
<path d="M128.99 65.4511C129.25 65.4511 129.46 65.2412 129.46 64.9822C129.46 64.7232 129.25 64.5133 128.99 64.5133C128.731 64.5133 128.521 64.7232 128.521 64.9822C128.521 65.2412 128.731 65.4511 128.99 65.4511Z" fill="white"/>
<path d="M128.21 81.9965C128.469 81.9965 128.679 81.7866 128.679 81.5276C128.679 81.2686 128.469 81.0587 128.21 81.0587C127.951 81.0587 127.741 81.2686 127.741 81.5276C127.741 81.7866 127.951 81.9965 128.21 81.9965Z" fill="white"/>
<path d="M129.149 90.2668C129.408 90.2668 129.618 90.0569 129.618 89.7979C129.618 89.539 129.408 89.329 129.149 89.329C128.889 89.329 128.679 89.539 128.679 89.7979C128.679 90.0569 128.889 90.2668 129.149 90.2668Z" fill="white"/>
<path opacity="0.05" d="M145.24 66.8554H135.24V56.8674L140.24 55.4608L145.24 56.8674V66.8554Z" fill="black"/>
<path d="M129.46 56.8674C129.719 56.8674 129.929 56.6574 129.929 56.3985C129.929 56.1395 129.719 55.9296 129.46 55.9296C129.2 55.9296 128.99 56.1395 128.99 56.3985C128.99 56.6574 129.2 56.8674 129.46 56.8674Z" fill="white"/>
<path d="M140.551 57.3363C140.811 57.3363 141.021 57.1264 141.021 56.8674C141.021 56.6085 140.811 56.3985 140.551 56.3985C140.292 56.3985 140.082 56.6085 140.082 56.8674C140.082 57.1264 140.292 57.3363 140.551 57.3363Z" fill="white"/>
<path d="M128.524 74.0348C128.783 74.0348 128.993 73.8249 128.993 73.5659C128.993 73.307 128.783 73.097 128.524 73.097C128.264 73.097 128.054 73.307 128.054 73.5659C128.054 73.8249 128.264 74.0348 128.524 74.0348Z" fill="white"/>
<path d="M113.057 46.4105C113.057 46.4105 108.682 47.0349 107.276 54.9942C105.871 62.9535 104.465 74.0348 104.465 74.0348C104.465 74.0348 102.121 84.3362 113.833 81.8339L114.458 78.243C114.458 78.243 113.279 82.3782 113.599 74.1079C113.92 65.8375 113.991 60.4418 113.991 60.4418L113.057 46.4105Z" fill="#D39999"/>
<path opacity="0.05" d="M113.057 46.4105C113.057 46.4105 108.682 47.0349 107.276 54.9942C105.871 62.9535 104.465 74.0348 104.465 74.0348C104.465 74.0348 102.121 84.3362 113.833 81.8339L114.458 78.243C114.458 78.243 112.661 82.2227 112.974 73.95C113.288 65.6773 113.991 60.4489 113.991 60.4489L113.057 46.4105Z" fill="black"/>
<path opacity="0.1" d="M152.276 82.152L150.224 84.3221C147.306 83.144 146.74 80.055 146.74 80.055L146.816 79.9984C147.293 79.8073 147.76 79.5886 148.212 79.3434L152.276 82.152Z" fill="black"/>
<path d="M149.379 78.1723L147.047 79.8994C147.047 79.8994 147.818 84.1029 152.191 84.5718L154.066 81.2943L149.379 78.1723Z" fill="#D39999"/>
<path d="M82.3687 55.5526L102.151 37.9258L111.205 48.451L126.743 47.6499L131.453 57.3811L116.66 76.6832L109.731 66.1674L93.2505 67.5764L82.3687 55.5526Z" fill="#F2F5FB"/>
<path d="M129.814 57.4046L124.609 64.1599L119.054 71.3699L116.489 74.704L110.552 65.477L104.326 66.0237L94.1894 66.912L86.6377 58.5686L84.041 55.7011L94.5762 46.3139L102.491 39.2641L106.569 44.0048L110.932 49.0777L115.29 48.8539L125.422 48.3308L129.377 56.5022L129.814 57.4046Z" fill="#DDE0ED"/>
<path d="M97.0903 50.3006L86.6377 58.5686L84.041 55.7011L94.5762 46.3139L97.0903 50.3006Z" fill="#ABB1D1"/>
<path d="M109.014 56.3914L108.191 51.2101L102.691 44.7611L106.569 44.0048L110.932 49.0777L115.29 48.8539L116.889 55.0248L109.123 57.0677L109.014 56.3914Z" fill="#ABB1D1"/>
<path d="M129.814 57.4046L124.609 64.1599L121.906 60.0883L129.377 56.5022L129.814 57.4046Z" fill="#ABB1D1"/>
<path d="M119.054 71.3699L116.488 74.704L110.552 65.477L104.326 66.0237L103.196 58.2222L109.015 56.3914L109.713 61.7212L113.649 62.3315L119.054 71.3699Z" fill="#ABB1D1"/>
<path d="M107.908 58.5074C107.88 58.5129 107.852 58.5107 107.825 58.5012C107.798 58.4916 107.775 58.475 107.757 58.4532C107.033 57.5665 106.147 56.8252 105.146 56.2689C105.11 56.2489 105.083 56.2154 105.072 56.1756C105.06 56.1358 105.065 56.0931 105.085 56.0569C105.105 56.0206 105.138 55.9938 105.178 55.9823C105.218 55.9708 105.261 55.9756 105.297 55.9956C106.332 56.5712 107.249 57.338 107.998 58.2552C108.015 58.2761 108.026 58.3012 108.031 58.3279C108.036 58.3547 108.033 58.3821 108.024 58.4076C108.015 58.4331 107.999 58.4557 107.978 58.4732C107.957 58.4907 107.932 58.5025 107.906 58.5074H107.908Z" fill="#D7666F"/>
<path d="M106.05 58.9409C106.02 58.947 105.989 58.9442 105.96 58.9328C105.932 58.9215 105.908 58.902 105.89 58.8769C105.873 58.8518 105.863 58.8221 105.863 58.7916C105.862 58.7611 105.871 58.7311 105.887 58.7053L107.911 55.3665C107.932 55.3312 107.967 55.3059 108.007 55.2962C108.047 55.2865 108.09 55.2931 108.125 55.3147C108.161 55.3362 108.186 55.3709 108.196 55.4111C108.205 55.4514 108.199 55.4938 108.177 55.5291L106.154 58.8679C106.142 58.8866 106.127 58.9028 106.109 58.9154C106.092 58.928 106.071 58.9367 106.05 58.9409V58.9409Z" fill="#D7666F"/>
<path opacity="0.1" d="M94.1938 66.7046L110.896 49.0424L125.391 48.3379L110.592 65.4158L94.1938 66.7046Z" fill="white"/>
<path d="M108.682 75.2742C108.682 75.2742 112.587 65.7009 114.462 66.6952C116.337 67.6895 121.804 73.6578 118.056 76.2685C114.309 78.8792 111.651 80.1233 111.651 80.1233L108.682 79.751V75.2742Z" fill="#FDC2CC"/>
<path d="M106.573 75.3614C106.573 75.3614 110.156 72.5528 113.05 81.0588L110.321 81.4499L107.196 79.5767L106.573 75.3614Z" fill="#D39999"/>
<path opacity="0.05" d="M106.573 75.3614C106.573 75.3614 110.156 72.5528 113.05 81.0588L110.321 81.4499L107.196 79.5767L106.573 75.3614Z" fill="black"/>
</g>
<defs>
<linearGradient id="paint0_linear" x1="126.726" y1="186.957" x2="126.726" y2="16.6774" gradientUnits="userSpaceOnUse">
<stop stop-color="#808080" stop-opacity="0.25"/>
<stop offset="0.54" stop-color="#808080" stop-opacity="0.12"/>
<stop offset="1" stop-color="#808080" stop-opacity="0.1"/>
</linearGradient>
<clipPath id="clip0">
<rect width="258.799" height="191" fill="white"/>
</clipPath>
</defs>
</svg>
