<svg width="837" height="464" viewBox="0 0 837 464" fill="none" xmlns="http://www.w3.org/2000/svg">
<path d="M772.826 370.824C771.893 372.833 770.963 374.814 770.036 376.769C768.59 379.807 767.162 382.785 765.752 385.704C765.125 386.997 764.498 388.267 763.887 389.536C756.975 403.653 750.521 416.138 745.039 426.407C740.068 435.715 732.683 443.515 723.659 448.99C714.635 454.465 704.304 457.413 693.749 457.524L571.855 458.85H570.569L560.119 458.962L551.181 459.059L523.796 459.372H522.687L508.733 459.525H508.307L422.302 460.457L345.532 461.26L336.602 461.357L281.141 461.959H281.052L245.083 462.345H244.697L130.961 463.574L96.9368 463.944C94.0397 463.977 91.1432 463.832 88.2639 463.51C87.2833 463.397 86.3027 463.269 85.3301 463.116C69.4617 460.668 54.9117 452.858 44.1038 440.989C29.4669 424.824 18.8167 406.103 11.663 385.704C10.6287 382.763 9.6642 379.785 8.76932 376.769C-15.9954 293.058 14.1949 185.107 68.5309 112.885C70.8083 109.864 73.1232 106.918 75.4757 104.047L75.5319 103.982C92.2427 83.4783 110.979 66.3488 130.937 54.1685C166.304 32.5477 205.488 26.4575 244.03 44.6075C276.64 59.9694 307.087 67.1924 336.602 69.1528C339.584 69.3457 342.566 69.4903 345.532 69.5787C413.235 71.7078 476.686 47.3231 551.197 31.5835C554.163 30.9568 557.137 30.3382 560.135 29.7517C613.29 19.1783 672.256 13.6023 742.378 25.3247C749.663 26.5143 756.852 28.2329 763.887 30.4667C766.979 31.463 769.959 32.5343 772.826 33.6805C806.295 47.291 824.549 72.4389 832.306 103.95C833.04 106.875 833.675 109.85 834.211 112.877C847.964 188.674 807.686 296.192 772.826 370.824Z" fill="#F2F2F2"/>
<path opacity="0.1" d="M399.498 376.769C399.174 379.775 398.673 382.758 397.995 385.704H473.31V376.769H399.498ZM336.602 427.234L345.532 427.162V405.091C342.47 404.954 339.488 404.818 336.602 404.673V427.234ZM149.384 376.769V385.704H308.936V376.769H149.384ZM832.346 103.958H772.866V33.6885C769.999 32.5209 767.02 31.4496 763.928 30.4747V103.99H560.135V29.7275C557.137 30.3141 554.163 30.9327 551.197 31.5594V103.958H345.532V69.5545C342.566 69.4661 339.584 69.3215 336.602 69.1287V103.958H130.937V54.1444C110.979 66.3247 92.2427 83.4542 75.5319 103.958H75.4756V104.022C73.1179 106.915 70.803 109.861 68.5309 112.86H75.4756V376.769H8.76128C9.65081 379.785 10.6154 382.763 11.6549 385.704H75.4676V460.923C78.6783 461.904 81.9555 462.653 85.2738 463.164C86.2464 463.317 87.227 463.446 88.2076 463.558C91.087 463.88 93.9834 464.025 96.8805 463.992L130.905 463.622V385.688H336.602V461.381L345.532 461.284V385.704H551.197V459.067L560.135 458.97V385.704H763.887V389.536C764.498 388.267 765.125 386.997 765.752 385.704C767.162 382.79 768.59 379.812 770.036 376.769C770.963 374.814 771.893 372.832 772.826 370.824V112.917H834.251C833.71 109.869 833.075 106.883 832.346 103.958ZM130.937 376.769V112.885H336.602V376.769H130.937ZM345.548 376.769V112.885H551.197V376.769H345.548ZM763.903 376.769H560.135V112.885H763.887L763.903 376.769Z" fill="black"/>
<path d="M670.946 283.682C659.809 263.123 644.024 245.447 624.848 232.06C623.478 231.115 621.897 230.519 620.243 230.325C622.501 215.477 622.027 199.071 613.644 186.698C593.75 157.34 492.392 187.638 492.392 187.638C421.345 163.02 359.767 194.266 359.767 194.266C359.767 194.266 281.141 181.957 245.147 191.43C228.171 195.897 224.048 213.203 224.434 230.253H224.377C222.872 230.25 221.386 230.587 220.029 231.238C218.672 231.889 217.48 232.837 216.54 234.013C206.967 245.968 178.047 282.79 178.835 289.901C179.783 298.425 211.042 409.205 209.628 462.707L646.318 457.886C646.318 457.886 653.552 350.224 671.645 291.291C672.429 288.762 672.178 286.026 670.946 283.682Z" fill="#3F3D56"/>
<path opacity="0.1" d="M215.319 290.383L233.315 254.396L248.467 324.465L248.644 356.989L215.319 290.383Z" fill="black"/>
<path opacity="0.1" d="M628.321 290.383L610.324 254.396L589.45 320.833L593.469 358.596L628.321 290.383Z" fill="black"/>
<path d="M247.149 322.553L589.482 320.681L593.276 358.555L248.467 357.607L247.149 322.553Z" fill="#3F3D56"/>
<path opacity="0.1" d="M247.149 322.553L589.482 320.681L593.276 358.555L248.467 357.607L247.149 322.553Z" fill="black"/>
<path opacity="0.1" d="M586.66 354.867H255.452C250.804 354.867 247.036 358.634 247.036 363.28V387.174C247.036 391.82 250.804 395.586 255.452 395.586H586.66C591.308 395.586 595.076 391.82 595.076 387.174V363.28C595.076 358.634 591.308 354.867 586.66 354.867Z" fill="white"/>
<path d="M523.852 218.651C523.852 218.651 522.695 217.044 521.329 217.912C520.677 218.337 517.615 222.194 514.609 226.115C513.13 228.035 511.659 229.971 510.493 231.514C509.055 233.41 508.082 234.728 508.082 234.728L507.503 235.812L503.991 242.377L500.687 248.547L499.883 251.456L511.04 255.248L523.74 251.785L523.193 249.431L523.097 249.029L523.201 243.614L523.491 228.348L523.627 221.479V220.676L523.852 218.651Z" fill="#FFE09C"/>
<path d="M498.308 256.284C498.308 256.284 510.365 260.583 516.546 258.333C516.546 258.333 521.891 256.63 523.997 254.983C523.997 254.983 526.24 253.81 523.193 249.985C523.193 249.985 515.389 254.766 508.002 252.886L500.615 250.997L498.308 256.284Z" fill="#E7C4C3"/>
<path d="M511.756 250.846C513.637 249.744 514.405 247.56 513.471 245.967C512.537 244.375 510.256 243.977 508.375 245.078C506.495 246.18 505.727 248.364 506.661 249.956C507.595 251.549 509.876 251.947 511.756 250.846Z" fill="#FF7F8E"/>
<path d="M519.774 241.237C521.655 240.135 522.422 237.951 521.489 236.359C520.555 234.766 518.274 234.368 516.393 235.469C514.513 236.571 513.745 238.755 514.679 240.348C515.612 241.94 517.894 242.338 519.774 241.237Z" fill="#FF7F8E"/>
<path d="M523.193 243.614C522.588 243.361 521.931 243.257 521.277 243.308C520.622 243.36 519.99 243.567 519.432 243.911C517.551 245.012 516.779 247.197 517.72 248.788C518.66 250.379 520.935 250.781 522.808 249.68C522.936 249.6 523.065 249.519 523.185 249.431L523.089 249.029L523.193 243.614Z" fill="#FF7F8E"/>
<path d="M509.553 237.243C509.33 236.873 509.031 236.555 508.676 236.309C508.322 236.062 507.919 235.893 507.495 235.812L503.983 242.377C504.598 242.654 505.271 242.775 505.944 242.73C506.617 242.685 507.268 242.476 507.841 242.12C509.722 241.019 510.485 238.833 509.553 237.243Z" fill="#FF7F8E"/>
<path d="M517.366 227.625C517.076 227.161 516.671 226.779 516.192 226.514C515.712 226.25 515.173 226.112 514.625 226.115C513.146 228.035 511.675 229.971 510.51 231.514L510.558 231.61C511.49 233.217 513.773 233.595 515.654 232.494C517.535 231.393 518.282 229.216 517.366 227.625Z" fill="#FF7F8E"/>
<path d="M523.619 221.471C523.205 221.575 522.807 221.737 522.438 221.953C520.557 223.054 519.793 225.239 520.726 226.83C521.017 227.296 521.424 227.68 521.907 227.945C522.39 228.209 522.932 228.345 523.483 228.34L523.619 221.471Z" fill="#FF7F8E"/>
<path d="M504.899 247.816L504.256 246.731C505.219 246.444 506.108 245.95 506.86 245.285C506.909 245.237 506.949 245.18 506.989 245.132C507.793 244.12 507.624 246.225 507.624 246.225C507.624 246.225 505.647 247.904 504.899 247.816Z" fill="#94CC79"/>
<path d="M514.384 246.137L513.741 245.044C514.703 244.755 515.591 244.262 516.345 243.598C516.345 243.55 516.433 243.501 516.474 243.445C517.277 242.441 517.109 244.538 517.109 244.538C517.109 244.538 515.131 246.225 514.384 246.137Z" fill="#94CC79"/>
<path d="M513.516 241.637L512.873 240.545C513.834 240.258 514.722 239.768 515.477 239.107C515.517 239.05 515.565 239.002 515.606 238.954C516.409 237.942 516.241 240.039 516.241 240.039C516.241 240.039 514.263 241.71 513.516 241.637Z" fill="#94CC79"/>
<path d="M514.665 233.523L514.022 232.43C514.984 232.141 515.873 231.648 516.626 230.984C516.626 230.935 516.715 230.887 516.755 230.831C517.559 229.819 517.39 231.924 517.39 231.924C517.39 231.924 515.413 233.603 514.665 233.523Z" fill="#94CC79"/>
<path d="M520.107 223.704L519.472 222.612C520.432 222.323 521.318 221.83 522.068 221.165C522.115 221.118 522.158 221.067 522.197 221.013C523 220.008 522.84 222.105 522.84 222.105C522.84 222.105 520.854 223.785 520.107 223.704Z" fill="#94CC79"/>
<path d="M519.496 233.723L518.853 232.631C519.815 232.346 520.704 231.855 521.457 231.192C521.457 231.136 521.546 231.088 521.586 231.04C522.39 230.027 522.221 232.124 522.221 232.124C522.221 232.124 520.243 233.812 519.496 233.723Z" fill="#94CC79"/>
<path d="M496.331 252.886C496.331 252.886 494.787 256.903 498.308 256.26C499.875 254.445 500.946 252.256 501.419 249.905C501.419 249.905 509.031 233.233 511.281 231.707C511.281 231.707 521.2 218.153 522.269 217.952C522.269 217.952 522.615 216.634 519.15 219.422C515.686 222.21 508.098 232.944 508.098 232.944L500.864 244.731L499.16 249.431L496.331 252.886Z" fill="#E7C4C3"/>
<path opacity="0.2" d="M496.331 252.886C496.331 252.886 494.787 256.903 498.308 256.26C499.875 254.445 500.946 252.256 501.419 249.905C501.419 249.905 509.031 233.233 511.281 231.707C511.281 231.707 521.2 218.153 522.269 217.952C522.269 217.952 522.615 216.634 519.15 219.422C515.686 222.21 508.098 232.944 508.098 232.944L500.864 244.731L499.16 249.431L496.331 252.886Z" fill="white"/>
<path d="M376.767 334.492C378.094 338.849 379.727 343.107 381.654 347.235C387.189 346.078 392.634 344.526 397.947 342.591C398.116 342.534 394.901 338.332 394.563 337.987C393.254 336.54 391.694 335.343 389.958 334.452C388.262 333.713 386.172 334.275 384.331 334.371C381.823 334.5 379.302 334.54 376.767 334.492Z" fill="#FBBEBE"/>
<path d="M389.99 341.088C387.225 340.221 385.537 337.433 384.411 334.749C383.286 332.066 382.378 329.125 380.24 327.165C379.834 327.226 379.449 327.388 379.121 327.635C378.793 327.882 378.531 328.206 378.359 328.579C378.025 329.331 377.652 330.066 377.242 330.78C376.357 332.066 374.83 332.692 373.665 333.785C372.499 334.878 371.848 336.541 370.634 337.642C369.107 339.023 366.953 339.369 364.952 339.827C361.852 340.53 358.857 341.638 356.046 343.121C355.011 343.745 353.904 344.242 352.75 344.599C351.479 344.847 350.177 344.891 348.892 344.728L340.05 344.101C339.263 344 338.464 344.033 337.687 344.198C336.793 344.524 336.032 345.136 335.523 345.94C335.015 346.744 334.786 347.694 334.874 348.641C334.987 349.585 335.294 350.495 335.775 351.315C336.257 352.134 336.902 352.846 337.671 353.405C339.216 354.503 340.918 355.362 342.719 355.952C350.432 358.867 358.374 361.135 366.463 362.733V364.485C372.086 367.255 378.271 368.696 384.54 368.695C385.002 368.728 385.466 368.648 385.89 368.462C386.47 368.042 386.876 367.425 387.032 366.726C389.16 360.504 390.402 354.012 390.721 347.444C390.879 345.782 390.751 344.105 390.343 342.486C389.861 340.879 391.517 341.562 389.982 340.936" fill="#2F2E41"/>
<path d="M559.846 307.713C533.586 309.32 507.6 301.599 481.348 300.779C478.079 300.573 474.798 300.784 471.582 301.406C468.206 302.161 465.055 303.688 461.937 305.15C447.83 311.706 433.25 317.137 418.677 322.561L401.942 328.796C398.598 330.041 395.134 331.302 391.573 331.085C389.966 330.989 388.012 330.748 387.12 332.074C384.395 336.091 385.681 342.028 387.482 346.536C388.061 347.998 389.089 349.589 390.617 349.75C391.718 349.862 392.747 349.227 393.832 348.946C396.878 348.143 399.916 350.183 403.051 350.513C406.926 350.923 410.518 348.721 414.176 347.371C420.236 345.13 426.867 345.202 433.242 344.157C443.932 342.374 453.835 337.417 463.094 331.768C466.615 329.615 470.184 327.309 474.235 326.522C478.889 325.614 483.671 326.811 488.245 328.129C499.13 331.206 509.846 334.853 520.348 339.056C525.878 341.273 531.376 343.643 537.131 345.178C549.58 348.45 562.748 347.682 574.732 342.984C578.928 341.321 583.502 338.389 583.743 333.857C583.879 331.27 581.87 329.037 580.528 326.787C579.676 325.365 578.816 323.951 577.875 322.585C573.318 315.948 567.82 307.239 559.846 307.713Z" fill="#2F2E41"/>
<path opacity="0.1" d="M559.846 307.713C533.586 309.32 507.6 301.599 481.348 300.779C478.079 300.573 474.798 300.784 471.582 301.406C468.206 302.161 465.055 303.688 461.937 305.15C447.83 311.706 433.25 317.137 418.677 322.561L401.942 328.796C398.598 330.041 395.134 331.302 391.573 331.085C389.966 330.989 388.012 330.748 387.12 332.074C384.395 336.091 385.681 342.028 387.482 346.536C388.061 347.998 389.089 349.589 390.617 349.75C391.718 349.862 392.747 349.227 393.832 348.946C396.878 348.143 399.916 350.183 403.051 350.513C406.926 350.923 410.518 348.721 414.176 347.371C420.236 345.13 426.867 345.202 433.242 344.157C443.932 342.374 453.835 337.417 463.094 331.768C466.615 329.615 470.184 327.309 474.235 326.522C478.889 325.614 483.671 326.811 488.245 328.129C499.13 331.206 509.846 334.853 520.348 339.056C525.878 341.273 531.376 343.643 537.131 345.178C549.58 348.45 562.748 347.682 574.732 342.984C578.928 341.321 583.502 338.389 583.743 333.857C583.879 331.27 581.87 329.037 580.528 326.787C579.676 325.365 578.816 323.951 577.875 322.585C573.318 315.948 567.82 307.239 559.846 307.713Z" fill="black"/>
<path d="M427.181 335.769C431.286 337.167 435.433 338.456 439.624 339.634C441.963 335.794 446.343 333.118 447.34 328.731C447.382 328.634 447.403 328.529 447.401 328.424C447.399 328.318 447.375 328.214 447.33 328.118C447.286 328.023 447.221 327.938 447.141 327.869C447.061 327.8 446.967 327.749 446.866 327.719C443.872 326.061 440.547 325.087 437.132 324.867C434.431 324.698 433.201 327.51 431.972 329.494C431.481 330.29 428.282 336.147 427.181 335.769Z" fill="#FBBEBE"/>
<path d="M432.968 332.966C431.741 332.758 430.57 332.298 429.529 331.615C428.489 330.932 427.602 330.04 426.924 328.996C426.345 327.984 425.726 326.586 424.569 326.691C423.411 326.795 422.961 328.048 422.752 329.101C421.973 333.085 420.84 336.992 419.368 340.775C417.89 344.566 415.385 347.872 412.134 350.32C410.607 351.373 408.919 352.168 407.424 353.277C406.081 354.265 404.916 355.518 403.405 356.282C402.417 356.739 401.396 357.12 400.35 357.423C398.817 357.963 397.35 358.678 395.978 359.552C394.773 360.248 393.753 361.224 393.004 362.396C392.625 362.99 392.404 363.67 392.36 364.372C392.316 365.075 392.452 365.777 392.755 366.413C393.072 366.933 393.497 367.379 394 367.722C394.503 368.066 395.073 368.299 395.672 368.406C396.87 368.615 398.091 368.647 399.298 368.502C404.08 368.149 408.863 367.699 413.645 367.297C415.666 367.175 417.675 366.906 419.657 366.494C420.71 366.236 421.731 365.907 422.776 365.634C424.565 365.174 426.397 364.905 428.242 364.83C428.782 364.788 429.326 364.837 429.85 364.975C430.959 365.337 431.738 366.437 432.888 366.662C433.621 366.732 434.361 366.633 435.05 366.373C438.49 365.433 442.115 365.457 445.676 365.264C447.284 365.184 449.084 364.887 449.808 363.481C450.708 361.729 449.213 359.769 448.626 357.856C448.326 356.654 448.159 355.423 448.128 354.185C447.857 351.129 446.959 348.161 445.491 345.467C444.278 343.234 442.614 340.759 443.466 338.357C443.755 337.553 444.334 336.75 444.269 335.946C443.996 332.098 435.146 333.423 432.968 332.966Z" fill="#2F2E41"/>
<path d="M520.468 265.604C515.82 263.552 512.098 259.851 510.019 255.216C509.577 254.219 509.215 253.183 508.798 252.179C507.419 248.836 505.277 245.862 502.544 243.493C502.25 243.172 501.891 242.919 501.49 242.75C501.089 242.58 500.656 242.5 500.221 242.513C499.801 242.641 499.422 242.878 499.122 243.2C498.823 243.521 498.614 243.917 498.517 244.345C498.276 245.259 498.216 246.212 498.34 247.149C498.575 249.357 498.956 251.547 499.482 253.705L500.752 259.498C500.908 260.391 501.178 261.261 501.555 262.085C502.101 263.062 502.823 263.928 503.685 264.64C504.851 265.717 506.032 266.753 507.23 267.766C508.9 269.363 511.074 270.329 513.379 270.497C518.588 271.461 523.893 272.859 528.297 276.258C528.241 276.258 528.297 272.369 528.201 271.927C528 270.762 527.839 269.605 527.084 268.818C525.356 267.051 522.55 266.544 520.468 265.604Z" fill="#FBBEBE"/>
<path opacity="0.1" d="M520.468 265.604C515.82 263.552 512.098 259.851 510.019 255.216C509.577 254.219 509.215 253.183 508.798 252.179C507.419 248.836 505.277 245.862 502.544 243.493C502.25 243.172 501.891 242.919 501.49 242.75C501.089 242.58 500.656 242.5 500.221 242.513C499.801 242.641 499.422 242.878 499.122 243.2C498.823 243.521 498.614 243.917 498.517 244.345C498.276 245.259 498.216 246.212 498.34 247.149C498.575 249.357 498.956 251.547 499.482 253.705L500.752 259.498C500.908 260.391 501.178 261.261 501.555 262.085C502.101 263.062 502.823 263.928 503.685 264.64C504.851 265.717 506.032 266.753 507.23 267.766C508.9 269.363 511.074 270.329 513.379 270.497C518.588 271.461 523.893 272.859 528.297 276.258C528.241 276.258 528.297 272.369 528.201 271.927C528 270.762 527.839 269.605 527.084 268.818C525.356 267.051 522.55 266.544 520.468 265.604Z" fill="black"/>
<path d="M573.944 221.246C577.474 221.246 580.335 218.372 580.335 214.826C580.335 211.281 577.474 208.407 573.944 208.407C570.415 208.407 567.554 211.281 567.554 214.826C567.554 218.372 570.415 221.246 573.944 221.246Z" fill="#2F2E41"/>
<path d="M569.99 210.946C568.262 210.753 566.333 210.616 564.942 211.677C564.204 212.326 563.614 213.126 563.214 214.023C561.784 216.48 560.669 219.106 559.894 221.84C559.324 224.187 559.227 226.661 558.52 228.943C557.21 233.217 553.858 236.825 553.472 241.284C553.303 243.276 553.641 245.615 552.178 246.98C551.821 247.28 551.439 247.549 551.037 247.784C550.026 248.46 549.169 249.342 548.521 250.371C548.082 251.295 547.477 252.131 546.736 252.838C545.434 253.802 543.28 253.697 542.637 255.192C541.994 256.686 543.65 258.405 543.264 260.012C542.95 261.33 541.479 261.933 540.467 262.832C539.165 263.981 538.57 265.709 538.055 267.364C535.92 267.767 533.722 267.704 531.613 267.179C529.504 266.653 527.534 265.677 525.838 264.319C527.614 268.706 527.654 273.55 527.735 278.291C527.735 279.825 527.735 281.553 526.609 282.621C531.697 282.734 536.657 284.108 541.616 285.233C543.786 285.723 546.141 286.149 548.159 285.233C549.298 284.62 550.314 283.803 551.157 282.822C553.858 280.083 556.687 277.102 557.346 273.301C557.716 271.18 557.346 268.995 557.459 266.874C557.707 264.209 558.246 261.58 559.066 259.032C560.497 253.749 561.457 248.351 561.936 242.899C562.225 239.54 565.151 236.833 566.662 233.82C569.556 228.148 572.506 222.234 572.723 215.863C572.827 213.758 572.104 211.179 569.99 210.946Z" fill="#2F2E41"/>
<path opacity="0.1" d="M569.99 210.946C568.262 210.753 566.333 210.616 564.942 211.677C564.204 212.326 563.614 213.126 563.214 214.023C561.784 216.48 560.669 219.106 559.894 221.84C559.324 224.187 559.227 226.661 558.52 228.943C557.21 233.217 553.858 236.825 553.472 241.284C553.303 243.276 553.641 245.615 552.178 246.98C551.821 247.28 551.439 247.549 551.037 247.784C550.026 248.46 549.169 249.342 548.521 250.371C548.082 251.295 547.477 252.131 546.736 252.838C545.434 253.802 543.28 253.697 542.637 255.192C541.994 256.686 543.65 258.405 543.264 260.012C542.95 261.33 541.479 261.933 540.467 262.832C539.165 263.981 538.57 265.709 538.055 267.364C535.92 267.767 533.722 267.704 531.613 267.179C529.504 266.653 527.534 265.677 525.838 264.319C527.614 268.706 527.654 273.55 527.735 278.291C527.735 279.825 527.735 281.553 526.609 282.621C531.697 282.734 536.657 284.108 541.616 285.233C543.786 285.723 546.141 286.149 548.159 285.233C549.298 284.62 550.314 283.803 551.157 282.822C553.858 280.083 556.687 277.102 557.346 273.301C557.716 271.18 557.346 268.995 557.459 266.874C557.707 264.209 558.246 261.58 559.066 259.032C560.497 253.749 561.457 248.351 561.936 242.899C562.225 239.54 565.151 236.833 566.662 233.82C569.556 228.148 572.506 222.234 572.723 215.863C572.827 213.758 572.104 211.179 569.99 210.946Z" fill="black"/>
<path d="M563.986 313.241C558.52 310.638 554.517 305.793 550.096 301.639C541.656 293.717 531.328 288.109 522.454 280.677C516.57 275.76 511.313 270.023 504.851 265.902C499.163 262.288 492.719 260.033 486.018 259.313C485.251 259.177 484.462 259.215 483.711 259.426C482.864 259.801 482.126 260.384 481.565 261.121C478.702 264.351 476.156 267.849 473.961 271.566C462.708 290.648 446.729 306.717 433.491 324.449C433.073 324.871 432.825 325.432 432.795 326.025C432.766 326.618 432.956 327.201 433.33 327.663L436.023 332.933C437.526 335.89 439.945 339.361 443.192 338.742C444.679 338.469 445.861 337.376 446.954 336.332L459.011 324.786L471.687 312.67C479.114 305.576 486.661 298.313 491.508 289.242C495.286 295.798 502.005 300.088 506.611 306.114C508.363 308.396 509.826 310.935 511.354 313.345C513.861 317.218 516.715 320.858 519.56 324.489L534.101 343.041C536.078 345.564 538.12 348.151 540.828 349.862C544.277 352.039 548.464 352.618 552.515 352.98C557.978 353.467 563.462 353.665 568.945 353.574C573.125 353.502 577.433 353.229 581.187 351.373C584.94 349.517 588.019 345.748 587.826 341.506C587.596 339.326 586.879 337.226 585.728 335.36C580.568 325.799 573.776 317.885 563.986 313.241Z" fill="#2F2E41"/>
<path d="M577.875 224.211C580.587 224.211 582.786 221.998 582.786 219.269C582.786 216.54 580.587 214.328 577.875 214.328C575.163 214.328 572.964 216.54 572.964 219.269C572.964 221.998 575.163 224.211 577.875 224.211Z" fill="#E8E8F0"/>
<path d="M576.79 215.558C577.894 217.757 578.088 220.303 577.328 222.644C576.568 224.954 575.506 227.153 574.17 229.184C573.019 231.281 571.642 233.245 570.062 235.041C577.642 235.411 584.997 232.438 591.684 228.831C597.069 225.938 602.439 222.355 605.348 216.939C604.493 217.147 603.604 217.171 602.738 217.012C601.873 216.853 601.05 216.513 600.325 216.015C598.881 215.008 597.588 213.802 596.483 212.432L592.673 208.15C591.779 207.219 590.994 206.189 590.334 205.081C589.508 203.564 589.158 201.834 589.329 200.115C587.817 201.699 586.126 203.101 584.289 204.293C581.572 206.061 578.574 207.346 575.849 209.114C574.885 209.733 572.731 210.721 573.285 211.998C573.84 213.276 576.042 214.208 576.79 215.558Z" fill="#FBBEBE"/>
<path opacity="0.1" d="M576.79 215.558C577.894 217.757 578.088 220.303 577.328 222.644C576.568 224.954 575.506 227.153 574.17 229.184C573.019 231.281 571.642 233.245 570.062 235.041C577.642 235.411 584.997 232.438 591.684 228.831C597.069 225.938 602.439 222.355 605.348 216.939C604.493 217.147 603.604 217.171 602.738 217.012C601.873 216.853 601.05 216.513 600.325 216.015C598.881 215.008 597.588 213.802 596.483 212.432L592.673 208.15C591.779 207.219 590.994 206.189 590.334 205.081C589.508 203.564 589.158 201.834 589.329 200.115C587.817 201.699 586.126 203.101 584.289 204.293C581.572 206.061 578.574 207.346 575.849 209.114C574.885 209.733 572.731 210.721 573.285 211.998C573.84 213.276 576.042 214.208 576.79 215.558Z" fill="black"/>
<path d="M576.894 216.305C575.472 218.715 575.166 221.527 576.894 223.712C577.111 223.986 577.907 225.673 578.253 225.689C578.587 225.655 578.897 225.498 579.121 225.247C580.962 223.568 582.336 221.423 583.944 219.518C585.551 217.614 587.601 215.887 590.06 215.501C593.026 215.043 595.896 216.61 598.492 218.128C599.621 218.679 600.607 219.485 601.37 220.483C601.917 221.472 602.241 222.569 602.318 223.696C603.21 230.453 603.194 237.299 603.17 244.112C603.17 249.045 603.17 254.002 602.206 258.839C601.723 261.346 601 263.796 600.654 266.319C600.406 268.547 600.307 270.788 600.357 273.028V282.412C600.292 284.134 600.413 285.859 600.719 287.555C601.161 289.611 602.133 291.507 602.784 293.508C603.457 295.807 603.917 298.163 604.159 300.546L605.445 310.26C605.847 313.321 606.144 316.688 604.295 319.098C603.492 320.207 602.358 321.099 601.514 322.207C598.299 326.337 599.352 332.242 598.026 337.296C596.982 340.996 594.834 344.289 591.869 346.737C589.594 348.665 586.66 350.175 583.743 349.637C579.796 348.906 577.425 344.816 576.348 340.904C575.271 336.991 574.885 332.789 572.554 329.511C570.649 326.827 567.731 325.14 565.03 323.228C562.33 321.315 559.758 318.849 559.179 315.603C558.922 314.189 559.082 312.735 558.93 311.304C558.72 309.492 558.025 307.769 556.919 306.317C555.813 304.865 554.336 303.738 552.644 303.053C550.627 302.25 548.135 301.984 547.018 300.136C549.959 298.481 551.905 295.42 552.933 292.198C553.962 288.977 554.171 285.554 554.372 282.179L555.047 270.891C555.345 265.845 555.481 260.848 557.708 256.316C558.697 254.284 559.934 252.388 560.971 250.387C562.339 247.572 563.507 244.664 564.468 241.686C566.075 237.058 567.683 232.43 569.13 227.746C569.706 225.483 570.564 223.302 571.686 221.254C572.827 219.293 574.612 216.73 576.894 216.305Z" fill="#E94D3D"/>
<path d="M551.816 289.643L554.806 289.748L555.441 285.241C555.522 284.337 555.733 283.449 556.068 282.605C556.563 281.716 557.139 280.874 557.788 280.09C560.73 275.937 560.513 270.449 561.245 265.379C562.217 258.646 565.03 252.347 567.812 246.153L573.631 233.225C574.783 231.029 575.338 228.569 575.239 226.091C575.295 224.09 575.882 216.827 575.938 214.842C575.938 214.103 574.33 214.513 573.969 213.854C573.245 212.416 572.249 216.313 570.89 217.164C569.532 218.016 568.776 219.575 568.205 221.069C566.952 224.323 566.188 227.746 564.99 231.032C563.793 234.318 562.201 237.548 559.573 239.87C558.383 240.914 557.017 241.734 555.891 242.851C552.282 246.418 551.929 252.05 551.8 257.136C551.736 260.117 551.125 289.643 551.816 289.643Z" fill="#E94D3D"/>
<path d="M594.835 210.913C591.933 212.054 590.342 215.204 589.53 218.225C588.718 221.246 588.38 224.476 586.821 227.183C583.172 233.522 573.88 235.37 571.316 242.224C570.512 244.465 570.512 246.924 570.279 249.31C569.813 254.219 568.197 258.952 567.723 263.869C567.47 267.683 567.559 271.512 567.988 275.31L571.204 314.028C571.678 319.652 571.662 325.622 570.231 331.053C573.518 331.688 576.943 330.836 579.989 329.446C583.035 328.056 585.824 326.144 588.758 324.529C593.806 321.741 599.376 319.773 603.797 316.061C604.598 315.438 605.284 314.679 605.823 313.819C606.707 312.293 606.787 310.437 607.205 308.717C607.586 307.343 608.073 306 608.66 304.7C610.279 300.798 611.691 296.812 612.888 292.761C613.71 290.074 614.357 287.336 614.825 284.566C615.179 282.364 615.372 280.131 615.565 277.905C615.8 274.418 616.492 270.976 617.622 267.669C620.447 259.785 622.049 251.516 622.373 243.148C622.464 241.94 622.38 240.725 622.124 239.54C621.628 238.104 620.97 236.73 620.162 235.443C618.812 232.904 618 230.108 616.73 227.521C613.853 221.696 608.765 217.269 603.444 213.565C600.855 211.757 597.801 209.756 594.835 210.913Z" fill="#2F2E41"/>
<path d="M526.939 274.081C524.631 272.87 522.541 271.281 520.758 269.381C519.954 268.432 519.279 267.364 518.451 266.432C516.364 264.203 513.652 262.657 510.67 261.997C507.712 261.348 504.688 261.054 501.66 261.121C499.634 260.992 497.601 261.237 495.664 261.844C494.695 262.161 493.822 262.719 493.127 263.465C492.433 264.211 491.939 265.121 491.693 266.11C491.251 268.521 492.826 270.859 494.715 272.41C496.474 273.844 498.544 274.848 500.76 275.342C502.566 275.654 504.388 275.866 506.217 275.977C516.972 277.102 526.569 282.951 535.957 288.278C544.236 292.964 552.674 297.341 561.269 301.406C561.607 298.831 561.75 296.233 561.695 293.637C561.647 291.7 561.55 288.744 559.717 287.603C557.587 286.277 554.091 285.996 551.68 285.192C546.139 283.377 540.728 281.189 535.483 278.644C532.584 277.225 529.736 275.704 526.939 274.081Z" fill="#FBBEBE"/>
<path d="M592.981 199.41C595.686 189.124 589.582 178.604 579.347 175.914C569.112 173.225 558.621 179.383 555.915 189.67C553.21 199.957 559.314 210.476 569.549 213.166C579.784 215.856 590.275 209.697 592.981 199.41Z" fill="#FBBEBE"/>
<path d="M600.317 232.751C598.605 234.744 597.745 237.315 596.595 239.677C594.232 244.546 590.519 248.724 588.662 253.818C586.701 259.185 586.765 265.564 582.923 269.782C582.256 270.513 581.452 271.22 581.259 272.193C581.233 272.783 581.165 273.371 581.058 273.952C580.511 275.479 578.004 275.559 577.537 277.118C577.401 277.576 577.473 278.074 577.304 278.524C576.919 279.528 575.592 279.681 574.7 280.291C572.835 281.553 573.213 284.477 571.887 286.301C571.305 286.984 570.551 287.498 569.703 287.792C568.855 288.086 567.944 288.148 567.064 287.972C565.322 287.615 563.646 286.989 562.097 286.116C561.546 285.811 560.939 285.622 560.312 285.562C559.57 285.586 558.851 285.829 558.246 286.261C554.71 288.511 553.046 292.97 553.07 297.18C553.094 301.39 554.541 305.439 556.02 309.376C556.225 310.04 556.558 310.657 557.001 311.192C558.174 312.429 560.216 312.237 561.775 311.546C563.334 310.855 564.749 309.77 566.421 309.465C569.387 308.926 572.289 310.967 575.263 310.798C577.465 310.67 579.418 309.392 581.243 308.155C584.169 306.179 587.143 304.138 589.281 301.342C590.599 299.622 591.564 297.67 592.713 295.83C594.184 293.588 595.795 291.442 597.536 289.403L608.58 275.889C609.688 274.609 610.683 273.235 611.554 271.783C612.559 269.821 613.336 267.751 613.869 265.612C614.922 262.005 615.983 258.381 616.159 254.613C616.221 251.521 615.951 248.432 615.356 245.398C614.974 242.373 614.162 239.419 612.944 236.624C610.67 231.61 604.826 227.489 600.317 232.751Z" fill="#2F2E41"/>
<path d="M633.722 224.154C634.607 220.856 634.695 217.396 633.979 214.057C633.264 210.719 631.765 207.598 629.607 204.952C632.541 192.442 626.15 179.916 614.897 175.28C615.299 163.55 607.864 152.784 596.41 149.763C584.506 146.638 572.297 152.92 567.161 164.088C559.926 160.336 552.274 160.738 549.75 165.149C547.114 169.761 551.077 177.016 558.592 181.347C560.961 182.73 563.553 183.69 566.252 184.183C567.411 187.46 569.244 190.458 571.632 192.985C574.02 195.512 576.91 197.511 580.118 198.854C579.92 203.596 581.048 208.301 583.377 212.438C585.705 216.575 589.142 219.981 593.3 222.274C593.754 225.571 594.973 228.716 596.86 231.458C596.639 232.033 596.451 232.62 596.298 233.217C593.935 242.176 599.047 251.287 607.704 253.561C616.36 255.834 625.298 250.419 627.654 241.461C628.287 239.072 628.396 236.576 627.975 234.141C630.753 231.388 632.738 227.939 633.722 224.154Z" fill="#3F3D56"/>
<path opacity="0.1" d="M554.71 167.479C557.234 163.068 564.878 162.658 572.12 166.418C577.24 155.25 589.466 148.959 601.37 152.093C601.908 152.23 602.439 152.398 602.977 152.575C600.941 151.32 598.731 150.372 596.418 149.763C584.514 146.638 572.305 152.92 567.169 164.088C559.934 160.336 552.282 160.738 549.758 165.149C547.122 169.761 551.085 177.016 558.6 181.347C560.011 182.158 561.497 182.831 563.037 183.355C555.851 178.968 552.138 171.978 554.71 167.479Z" fill="black"/>
<path opacity="0.1" d="M601.265 235.547C601.419 234.95 601.607 234.363 601.828 233.788C599.941 231.043 598.721 227.895 598.267 224.596C594.109 222.305 590.673 218.9 588.344 214.764C586.015 210.628 584.887 205.925 585.085 201.184C581.878 199.841 578.987 197.842 576.599 195.315C574.211 192.788 572.379 189.79 571.22 186.513C569.646 186.232 568.107 185.782 566.63 185.171C567.858 188.228 569.682 191.01 571.996 193.355C574.31 195.7 577.068 197.561 580.11 198.83C579.912 203.572 581.04 208.276 583.369 212.413C585.697 216.551 589.134 219.957 593.292 222.25C593.746 225.547 594.965 228.692 596.852 231.433C596.631 232.009 596.443 232.596 596.29 233.193C593.935 242.119 599.007 251.198 607.615 253.512C604.855 251.518 602.769 248.73 601.634 245.521C600.5 242.311 600.371 238.832 601.265 235.547Z" fill="black"/>
<path d="M582.713 201.168C584.01 200.183 583.993 197.978 582.675 196.243C581.356 194.508 579.236 193.9 577.938 194.885C576.641 195.87 576.658 198.075 577.976 199.81C579.295 201.545 581.415 202.153 582.713 201.168Z" fill="#FBBEBE"/>
<path d="M347.075 31.6078C354.307 31.6078 360.169 25.748 360.169 18.5196C360.169 11.2912 354.307 5.4314 347.075 5.4314C339.844 5.4314 333.982 11.2912 333.982 18.5196C333.982 25.748 339.844 31.6078 347.075 31.6078Z" fill="#3F3D56"/>
<path d="M375.489 95.1284C395.772 95.1284 412.214 73.8332 412.214 47.5642C412.214 21.2952 395.772 0 375.489 0C355.207 0 338.764 21.2952 338.764 47.5642C338.764 73.8332 355.207 95.1284 375.489 95.1284Z" fill="#3F3D56"/>
<path opacity="0.1" d="M375.489 80.7627C357.091 80.7627 341.851 63.2395 339.174 40.3813C338.896 42.7655 338.756 45.1638 338.756 47.5642C338.756 73.8289 355.202 95.1284 375.489 95.1284C395.777 95.1284 412.214 73.8289 412.214 47.5642C412.214 45.1638 412.075 42.7655 411.796 40.3813C409.128 63.2716 393.888 80.7627 375.489 80.7627Z" fill="black"/>
<path d="M453.746 186.866C452.942 190.08 449.558 192.699 445.797 194.507C437.871 198.323 428.113 199.456 418.637 199.842C416.225 199.988 413.807 199.943 411.403 199.705C406.443 199.119 401.846 197.006 398.976 193.993C398.567 193.664 398.283 193.204 398.172 192.691C398.192 192.383 398.274 192.083 398.412 191.807C398.55 191.531 398.742 191.285 398.976 191.084C404.032 185.573 412.456 182.182 420.911 179.772C427.342 177.916 438.546 173.111 445.564 173.762C452.38 174.349 454.743 182.769 453.746 186.866Z" fill="#3F3D56"/>
<path opacity="0.1" d="M453.746 186.866C452.942 190.08 449.558 192.699 445.797 194.507C437.871 198.323 428.113 199.456 418.637 199.842C416.225 199.988 413.807 199.943 411.403 199.705C406.443 199.119 401.846 197.006 398.976 193.993C398.567 193.664 398.283 193.204 398.172 192.691C398.192 192.383 398.274 192.083 398.412 191.807C398.55 191.531 398.742 191.285 398.976 191.084C404.032 185.573 412.456 182.182 420.911 179.772C427.342 177.916 438.546 173.111 445.564 173.762C452.38 174.349 454.743 182.769 453.746 186.866Z" fill="black"/>
<path d="M353.064 162.65C350.653 167.377 350.217 172.867 351.85 177.916C353.515 182.936 356.634 187.349 360.812 190.594C371.077 198.829 385.159 199.962 398.285 199.858C409.794 199.754 421.287 198.965 432.703 197.496C436.505 197.006 440.347 196.427 443.868 194.909C448.152 193.053 451.905 189.654 453.441 185.267C454.976 180.88 453.891 175.449 450.226 172.508C447.01 169.921 442.646 169.568 438.555 169.295L415.124 167.889C417.439 165.543 420.518 164.217 423.339 162.522C427.076 160.256 429.56 156.464 432.285 153.049C436.304 147.939 441.127 143.472 445.949 139.029C446.753 143.399 449.478 146.991 452.733 150.012C455.989 153.033 459.742 155.459 463.134 158.328C471.333 165.285 477.233 174.734 485.857 181.162C491.791 179.602 497.338 176.834 502.15 173.031L498.798 166.965C498.523 166.329 498.089 165.776 497.537 165.358C496.58 164.779 495.358 165.077 494.257 164.916C491.315 164.474 490.029 161.075 488.872 158.336C485.705 150.799 479.628 144.958 474.403 138.643C470.593 133.987 467.217 128.993 464.316 123.723C462.572 120.582 460.98 117.295 458.609 114.588C456.238 111.88 452.934 109.767 449.333 109.767C446.118 109.767 443.225 111.374 440.492 112.981C432.167 117.925 424.156 123.38 416.507 129.315C412.488 132.416 408.525 135.702 403.831 137.607C401.854 138.41 399.812 138.956 397.875 139.929C394.555 141.64 392.031 144.532 389.315 147.095C379.637 156.247 366.382 162.176 353.064 162.65Z" fill="#605D82"/>
<path d="M402.063 97.4905C401.958 100.291 401.362 103.051 400.302 105.646C399.766 106.934 398.969 108.099 397.962 109.067C396.956 110.034 395.76 110.784 394.451 111.27C392.588 111.769 390.635 111.832 388.744 111.454C387.091 111.276 385.5 110.727 384.09 109.848C381.896 108.337 380.802 105.646 380.4 103.01C379.999 100.375 380.184 97.6834 379.926 95.032C379.676 92.889 379.268 90.7675 378.705 88.6847C378.536 87.9938 378.359 87.3028 378.182 86.6118C378.005 85.9209 377.853 85.2299 377.7 84.5389C377.547 83.848 377.427 83.2454 377.314 82.5866C377.201 81.9277 377.137 81.4778 377.081 80.9234C377.03 79.2668 376.759 77.6242 376.277 76.0384C375.819 75.0119 375.245 74.0413 374.565 73.146C374.276 72.7282 373.994 72.3426 373.761 71.8846C373.013 70.7653 372.665 69.4262 372.773 68.0843C372.803 67.8762 372.855 67.6717 372.925 67.4737C372.95 67.3969 372.979 67.3217 373.014 67.2487C373.3 67.1701 373.563 67.0229 373.781 66.82C373.998 66.617 374.162 66.3643 374.26 66.0837C374.37 65.4782 374.317 64.8544 374.107 64.2759C373.871 63.468 373.544 62.6891 373.134 61.954C372.869 61.4719 371.961 60.5961 371.953 60.0418C371.953 58.925 374.123 58.0251 375.007 57.5832C377.708 56.2291 380.721 55.6189 383.736 55.8156C385.665 55.9442 387.755 56.5387 388.824 58.1617C389.789 59.6159 389.628 61.504 390.07 63.1993C390.107 63.4468 390.21 63.6799 390.367 63.8742C390.577 64.065 390.841 64.1857 391.123 64.2197C391.594 64.3146 392.077 64.3336 392.554 64.2759C392.681 64.269 392.808 64.2502 392.932 64.2197C393.675 64.0823 394.378 63.7803 394.989 63.3359C395.391 63.2234 395.793 63.1431 396.187 63.0708H396.235C397.843 68.1164 398.044 73.5156 399.354 78.6738C400.005 81.2287 400.961 83.7515 401.066 86.3869C401.066 86.4993 401.066 86.6199 401.066 86.7324C401.066 87.584 401.018 88.4357 401.066 89.2793C401.08 89.6569 401.123 90.0329 401.194 90.4041C401.339 91.0024 401.517 91.5924 401.725 92.1717C401.781 92.3565 401.838 92.5413 401.886 92.7341C401.926 92.8688 401.958 93.0056 401.982 93.1439C402.218 94.5814 402.245 96.0453 402.063 97.4905Z" fill="#FBBEBE"/>
<path d="M379.653 64.4848C390.058 64.4848 398.494 56.053 398.494 45.6519C398.494 35.2508 390.058 26.8191 379.653 26.8191C369.247 26.8191 360.812 35.2508 360.812 45.6519C360.812 56.053 369.247 64.4848 379.653 64.4848Z" fill="#FBBEBE"/>
<path d="M499.281 148.268C498.732 143.135 496.905 138.221 493.968 133.975L495.439 142.693C494.828 142.867 494.181 142.861 493.574 142.674C492.967 142.487 492.428 142.128 492.022 141.64C491.228 140.649 490.62 139.522 490.23 138.314C488.089 133.003 485.289 127.982 481.895 123.37C469.902 122.365 458.038 117.4 447.493 111.599C436.947 105.798 427.068 98.8644 416.651 92.8305C414.845 91.7417 412.965 90.7806 411.025 89.9541C407.769 88.6525 404.112 87.9776 401.026 86.443L400.407 86.1136C399.707 85.7385 399.045 85.2973 398.429 84.796C398.099 84.5231 397.785 84.2306 397.489 83.9202C395.947 82.1301 394.724 80.0893 393.872 77.8863C392.216 74.2226 391.621 69.7956 389.974 66.1318C390.734 65.4244 391.585 64.8219 392.506 64.3402L392.907 64.1393C393.562 63.8337 394.243 63.5863 394.941 63.4001C395.343 63.2876 395.745 63.2073 396.139 63.135H396.187C398.055 62.834 399.968 62.9856 401.765 63.5769C404.385 64.4687 406.588 66.2363 408.806 67.9155C412.303 70.5589 415.936 73.0495 419.111 76.0786C420.927 77.822 422.591 79.7342 424.545 81.317C426.173 82.5737 427.889 83.7121 429.681 84.7237L461.462 103.645C465.047 105.774 468.64 107.911 472.145 110.177C477.474 113.608 482.594 117.328 487.738 121.048L496.813 127.62C497.807 128.264 498.678 129.08 499.385 130.03C500.007 131.095 500.394 132.282 500.518 133.509C501.273 138.458 500.848 143.514 499.281 148.268Z" fill="#FBBEBE"/>
<path d="M406.741 111.655C405.463 117.352 399.707 120.798 396.693 125.804C392.948 132.015 394.475 139.238 395.889 146.356L388.181 152.993C386.767 154.206 385.344 155.403 383.825 156.504C381.597 158.001 379.268 159.343 376.856 160.521L370.04 164.024C367.925 165.212 365.685 166.16 363.36 166.852C358.875 168.001 354.117 167.198 349.696 165.872C349.173 165.736 348.67 165.53 348.201 165.261C347.925 165.096 347.685 164.877 347.493 164.619C347.053 163.836 346.894 162.925 347.043 162.04C347.493 154.584 349.318 147.28 351.135 140.033C352.089 135.681 353.382 131.41 355.001 127.258C356.596 123.705 358.43 120.263 360.491 116.958C362.902 112.885 365.313 108.779 368.529 105.284C369.903 103.773 371.438 102.343 372.258 100.463C373.391 97.8761 372.949 94.9114 373.182 92.0993C373.356 89.9824 373.917 87.9154 374.838 86.0011C375.331 84.9709 375.923 83.9913 376.607 83.0765C376.92 83.7997 377.226 84.5228 377.539 85.2378L378.142 86.6519C378.407 87.2545 378.664 87.8651 378.946 88.4677C379.696 90.1924 380.441 91.9199 381.18 93.6499C381.978 95.8292 383.121 97.8664 384.564 99.6839C386.099 101.419 388.358 102.681 390.657 102.432C391.736 102.252 392.762 101.834 393.66 101.209C394.559 100.583 395.306 99.766 395.849 98.8161C396.926 96.9135 397.704 94.8568 398.156 92.7179C398.789 90.1153 398.877 87.4099 398.413 84.7718C397.61 79.686 395.48 74.4957 393.912 69.7714C393.273 68.1974 392.903 66.527 392.819 64.8302C392.818 64.6386 392.837 64.4474 392.875 64.2598V64.1152C393.53 63.8096 394.211 63.5622 394.909 63.376C395.311 63.2635 395.713 63.1832 396.107 63.1108C397.489 70.6097 398.874 78.0925 400.262 85.5592C400.262 85.736 400.334 85.9127 400.367 86.0895C400.559 87.1661 400.76 88.2347 400.986 89.3033C401.211 90.3719 401.403 91.2396 401.645 92.1957C401.725 92.5171 401.813 92.8465 401.902 93.1679C402.151 94.0517 402.424 94.9194 402.706 95.7871C404.667 101.034 407.938 106.264 406.741 111.655Z" fill="#E64648"/>
<path d="M483.213 191.735C483.143 192.842 483.356 193.948 483.832 194.949C485.005 197.102 487.851 197.592 490.262 197.793C504.565 198.972 518.955 198.535 533.16 196.492C533.932 196.435 534.68 196.202 535.347 195.809C537.364 194.395 536.15 190.948 533.916 189.839C531.681 188.73 529.093 189.036 526.682 188.529C524.277 187.921 521.986 186.928 519.898 185.589C514.995 182.771 510.172 179.825 505.43 176.751C502.592 174.927 499.24 172.983 496.049 174.067C487.377 176.992 483.149 182.407 483.213 191.735Z" fill="#2F2E41"/>
<path d="M377.772 84.1614L377.7 84.5551L377.579 85.2139C377.185 87.2386 376.695 89.2312 376.14 91.2639C374.605 96.7997 372.555 102.255 370.514 107.622L354.109 150.848C352.726 154.479 351.352 158.079 349.784 161.662C349.262 162.843 348.723 164.072 348.177 165.246C346.256 169.56 344.407 174.019 343.796 178.623C343.394 181.668 342.992 184.777 343.595 187.79C344.198 190.803 346.006 193.752 348.908 194.861C350.307 195.407 352.308 196.138 351.922 197.592C351.721 198.396 350.813 198.781 349.993 198.91C348.918 199.083 347.818 199.017 346.772 198.715C345.725 198.414 344.759 197.885 343.941 197.167C342.413 195.817 341.232 193.704 339.198 193.479C337.792 193.326 336.498 194.17 335.179 194.756C329.915 197.167 323.79 195.479 318.26 193.768C318.694 191.534 320.944 190.056 323.171 189.614C325.397 189.172 327.712 189.478 329.995 189.421C330.725 189.459 331.449 189.271 332.069 188.883C332.628 188.383 333.028 187.729 333.218 187.003C334.683 182.658 335.772 178.196 336.473 173.666C337.213 168.925 337.518 164.121 338.563 159.445C339.367 155.797 340.637 152.262 341.714 148.678C343.805 141.304 345.519 133.827 346.85 126.278C347.525 123.145 348.008 119.973 348.297 116.781C348.482 114.13 348.394 111.463 348.651 108.827C349.078 105.393 349.793 102.002 350.789 98.6878C351.77 95.0642 352.742 91.4567 353.723 87.8412C355.17 82.4902 356.721 76.9384 360.386 72.7846C361.659 71.3205 363.218 70.1335 364.969 69.2973C366.719 68.4611 368.623 67.9936 370.562 67.9237C371.289 67.9204 372.015 67.9985 372.724 68.1567L373.078 68.2451C373.854 68.4449 374.598 68.7533 375.288 69.161C376.422 68.4379 376.992 68.695 377.748 69.7957C378.404 70.9712 378.713 72.3083 378.64 73.6523C378.698 77.1754 378.407 80.6955 377.772 84.1614Z" fill="#FBBEBE"/>
<path d="M379.01 88.4277L378.962 88.4759L378.705 88.733L376.14 91.296L374.878 86.0093L370.562 67.8996C371.289 67.8963 372.015 67.9744 372.724 68.1326C372.755 67.9246 372.806 67.72 372.877 67.522L373.078 68.221L374.541 73.1943L377.314 82.6349L377.772 84.1936L379.01 88.4277Z" fill="#E64648"/>
<path d="M393.406 17.8767H371.816C366.489 17.8767 362.171 22.1933 362.171 27.5181V33.777C362.171 39.1018 366.489 43.4184 371.816 43.4184H393.406C398.733 43.4184 403.051 39.1018 403.051 33.777V27.5181C403.051 22.1933 398.733 17.8767 393.406 17.8767Z" fill="#3F3D56"/>
<path d="M405.438 31.6078C412.67 31.6078 418.532 25.748 418.532 18.5196C418.532 11.2912 412.67 5.4314 405.438 5.4314C398.207 5.4314 392.345 11.2912 392.345 18.5196C392.345 25.748 398.207 31.6078 405.438 31.6078Z" fill="#3F3D56"/>
<path opacity="0.1" d="M405.125 5.42327H404.643C408.015 5.56803 411.201 7.00896 413.536 9.44537C415.871 11.8818 417.175 15.1254 417.175 18.4994C417.175 21.8734 415.871 25.117 413.536 27.5534C411.201 29.9899 408.015 31.4308 404.643 31.5756H405.125C408.598 31.5756 411.928 30.1966 414.384 27.7421C416.839 25.2876 418.219 21.9586 418.219 18.4874C418.219 15.0162 416.839 11.6871 414.384 9.23261C411.928 6.7781 408.598 5.39917 405.125 5.39917V5.42327Z" fill="black"/>
<path opacity="0.1" d="M347.075 5.42327H347.558C344.185 5.56803 340.999 7.00896 338.664 9.44537C336.329 11.8818 335.026 15.1254 335.026 18.4994C335.026 21.8734 336.329 25.117 338.664 27.5534C340.999 29.9899 344.185 31.4308 347.558 31.5756H347.075C345.356 31.5756 343.653 31.237 342.065 30.5793C340.476 29.9215 339.033 28.9575 337.817 27.7421C336.601 26.5268 335.636 25.0839 334.978 23.496C334.32 21.9081 333.982 20.2061 333.982 18.4874C333.982 16.7686 334.32 15.0667 334.978 13.4787C335.636 11.8908 336.601 10.448 337.817 9.23261C339.033 8.01726 340.476 7.05319 342.065 6.39545C343.653 5.73771 345.356 5.39917 347.075 5.39917V5.42327Z" fill="black"/>
<path opacity="0.1" d="M403.453 40.8554H370.273C369.257 40.8554 368.283 40.4528 367.565 39.7358C366.846 39.0188 366.441 38.046 366.439 37.031V39.5779C366.441 40.5937 366.845 41.5673 367.564 42.2855C368.283 43.0038 369.257 43.4083 370.273 43.4104H403.485C404.501 43.4083 405.475 43.0038 406.194 42.2855C406.913 41.5673 407.317 40.5937 407.319 39.5779V37.031C407.317 37.536 407.215 38.0357 407.02 38.5013C406.824 38.967 406.539 39.3896 406.18 39.7448C405.821 40.1 405.395 40.381 404.927 40.5716C404.459 40.7621 403.958 40.8586 403.453 40.8554Z" fill="black"/>
<path d="M516.016 174.831C516.016 174.831 518.089 175.192 518.427 173.513C518.596 172.709 518.025 167.551 517.374 162.393C517.06 159.854 516.723 157.323 516.45 155.299C516.12 152.816 515.879 151.105 515.879 151.105L515.501 149.851L513.267 142.347L511.161 135.277L509.609 132.497L498.445 137.928L491.5 149.924L493.654 151.281L494.032 151.523L497.995 155.668L509.103 167.318L514.103 172.565L514.689 173.175L516.016 174.831Z" fill="#FFE09C"/>
<path d="M507.238 127.724C507.238 127.724 495.005 133.461 492.063 139.696C492.063 139.696 489.314 144.942 488.968 147.73C488.968 147.73 488.164 150.277 493.236 150.904C493.236 150.904 495.543 141.544 502.464 137.478L509.392 133.421L507.238 127.724Z" fill="#E7C4C3"/>
<path d="M510.426 142.125C511.023 139.9 509.977 137.687 508.091 137.181C506.205 136.676 504.193 138.07 503.596 140.295C502.999 142.521 504.045 144.734 505.931 145.24C507.817 145.745 509.829 144.351 510.426 142.125Z" fill="#FF7F8E"/>
<path d="M509.099 156.672C509.689 154.455 508.645 152.252 506.767 151.752C504.888 151.251 502.886 152.643 502.295 154.86C501.704 157.076 502.748 159.279 504.627 159.779C506.506 160.28 508.508 158.888 509.099 156.672Z" fill="#FF7F8E"/>
<path d="M497.995 155.668C498.636 155.408 499.205 154.999 499.657 154.475C500.108 153.951 500.429 153.328 500.591 152.655C501.186 150.438 500.141 148.228 498.26 147.73C496.379 147.232 494.378 148.622 493.791 150.84C493.745 150.989 493.71 151.143 493.686 151.298L494.064 151.539L497.995 155.668Z" fill="#FF7F8E"/>
<path d="M512.937 150.309C513.378 150.421 513.837 150.438 514.284 150.359C514.732 150.28 515.157 150.107 515.533 149.851L513.299 142.347C512.633 142.594 512.038 143.001 511.567 143.532C511.096 144.063 510.763 144.702 510.598 145.392C510.011 147.634 511.056 149.811 512.937 150.309Z" fill="#FF7F8E"/>
<path d="M514.231 163.293C514.793 163.426 515.38 163.413 515.935 163.255C516.491 163.098 516.997 162.801 517.406 162.393C517.093 159.854 516.755 157.323 516.482 155.299H516.377C514.496 154.793 512.495 156.191 511.9 158.408C511.305 160.626 512.358 162.795 514.231 163.293Z" fill="#FF7F8E"/>
<path d="M514.103 172.541C514.333 172.152 514.509 171.733 514.625 171.295C515.22 169.078 514.175 166.876 512.294 166.378C511.725 166.24 511.129 166.252 510.566 166.413C510.002 166.573 509.49 166.877 509.079 167.294L514.103 172.541Z" fill="#FF7F8E"/>
<path d="M508.58 138.94L509.867 139.286C509.361 140.216 509.062 141.243 508.99 142.299C508.987 142.368 508.987 142.438 508.99 142.508C509.159 143.833 507.704 142.162 507.704 142.162C507.704 142.162 507.954 139.439 508.58 138.94Z" fill="#94CC79"/>
<path d="M502.721 147.232L504.015 147.578C503.505 148.503 503.206 149.529 503.139 150.583C503.135 150.652 503.135 150.722 503.139 150.791C503.308 152.117 501.853 150.446 501.853 150.446C501.853 150.446 502.094 147.722 502.721 147.232Z" fill="#94CC79"/>
<path d="M506.724 149.972L508.01 150.309C507.504 151.239 507.206 152.267 507.134 153.322C507.13 153.392 507.13 153.462 507.134 153.531C507.31 154.857 505.848 153.186 505.848 153.186C505.848 153.186 506.113 150.462 506.724 149.972Z" fill="#94CC79"/>
<path d="M511.868 156.89L513.162 157.227C512.653 158.155 512.354 159.184 512.286 160.24C512.282 160.31 512.282 160.379 512.286 160.449C512.455 161.775 511 160.103 511 160.103C511 160.103 511.249 157.38 511.868 156.89Z" fill="#94CC79"/>
<path d="M515.075 168.274L516.361 168.62C515.857 169.547 515.558 170.572 515.485 171.625C515.481 171.694 515.481 171.764 515.485 171.834C515.662 173.159 514.199 171.496 514.199 171.496C514.199 171.496 514.448 168.765 515.075 168.274Z" fill="#94CC79"/>
<path d="M508.098 160.312L509.384 160.658C508.876 161.597 508.582 162.637 508.524 163.703C508.52 163.772 508.52 163.842 508.524 163.912C508.693 165.237 507.238 163.574 507.238 163.574C507.238 163.574 507.479 160.802 508.098 160.312Z" fill="#94CC79"/>
<path d="M511.217 128.785C511.217 128.785 509.376 124.615 507.198 127.724C507.382 130.249 508.212 132.684 509.609 134.795C509.609 134.795 516.273 152.912 515.718 155.684C515.718 155.684 518.346 173.183 517.695 174.164C517.695 174.164 518.419 175.401 518.933 170.749C519.448 166.097 517.189 152.43 517.189 152.43L513.885 138.225L511.675 133.405L511.217 128.785Z" fill="#E7C4C3"/>
<path opacity="0.2" d="M511.217 128.785C511.217 128.785 509.376 124.615 507.198 127.724C507.382 130.249 508.212 132.684 509.609 134.795C509.609 134.795 516.273 152.912 515.718 155.684C515.718 155.684 518.346 173.183 517.695 174.164C517.695 174.164 518.419 175.401 518.933 170.749C519.448 166.097 517.189 152.43 517.189 152.43L513.885 138.225L511.675 133.405L511.217 128.785Z" fill="white"/>
<path d="M489.113 135.694C489.113 135.694 492.416 145.207 495.438 142.676L493.027 130.247L489.113 135.694Z" fill="#FBBEBE"/>
<path d="M263.168 174.766C263.168 174.766 292.305 223.833 299.113 230.389C299.113 230.389 328.227 260.599 313.429 258.51C312.344 258.357 291.035 240.352 289.79 237.395C288.544 234.439 248.258 182.126 248.258 182.126L254.005 176.839L263.168 174.766Z" fill="#A0616A"/>
<path opacity="0.1" d="M263.168 174.766C263.168 174.766 292.305 223.833 299.113 230.389C299.113 230.389 328.227 260.599 313.429 258.51C312.344 258.357 291.035 240.352 289.79 237.395C288.544 234.439 248.258 182.126 248.258 182.126L254.005 176.839L263.168 174.766Z" fill="black"/>
<path d="M289.814 335.014C289.814 335.014 280.49 346.664 284.38 351.324C288.27 355.984 307.65 364.894 313.903 364.525C320.51 364.139 342.655 365.328 343.434 355.205C343.434 355.205 344.986 350.545 324.786 349.765C304.587 348.986 310.792 328.016 310.792 328.016L289.814 335.014Z" fill="#2F2E41"/>
<path d="M178.698 236.367C178.698 236.367 169.374 268.207 197.346 273.647L227.649 272.096C227.649 272.096 270.386 263.547 282.049 269.766C282.049 269.766 286.711 270.57 285.152 276.756C283.592 282.943 287.483 324.915 287.483 324.915V338.895C287.483 338.895 313.903 338.895 317.014 335.786C317.014 335.786 314.683 323.356 317.014 313.289C319.345 303.222 313.132 271.341 313.132 271.341L312.513 252.211C312.465 249.84 311.787 247.525 310.549 245.503C309.31 243.481 307.554 241.825 305.463 240.705C303.994 239.928 302.36 239.512 300.697 239.492C300.697 239.492 247.856 230.952 229.208 232.502C210.56 234.053 178.698 236.367 178.698 236.367Z" fill="#605D82"/>
<path d="M230.759 134.61C230.759 134.61 244.745 150.92 246.297 156.359C247.848 161.799 264.977 175.755 264.977 175.755C264.977 175.755 252.542 185.075 254.873 189.735C257.204 194.395 238.556 174.204 238.556 174.204L216.749 142.379L230.759 134.61Z" fill="#E23537"/>
<path opacity="0.1" d="M230.759 134.61C230.759 134.61 244.745 150.92 246.297 156.359C247.848 161.799 264.977 175.755 264.977 175.755C264.977 175.755 252.542 185.075 254.873 189.735C257.204 194.395 238.556 174.204 238.556 174.204L216.749 142.379L230.759 134.61Z" fill="#E23537"/>
<path d="M240.059 115.97C240.059 115.97 233.066 138.466 233.066 147.039C233.066 155.612 203.535 144.709 204.315 140.049C205.094 135.389 221.411 118.3 222.191 111.31C222.971 104.32 240.059 115.97 240.059 115.97Z" fill="#A0616A"/>
<path opacity="0.1" d="M216.749 131.5C216.749 131.5 189.549 124.51 185.667 164.129C181.785 203.747 188.77 208.399 177.115 232.478C165.46 256.557 256.376 235.587 256.376 235.587C256.376 235.587 251.714 230.148 236.949 232.478L229.956 211.508C229.956 211.508 227.625 202.188 240.839 202.188C254.053 202.188 247.832 174.999 247.832 174.999C247.832 174.999 240.839 151.699 236.949 149.369C233.058 147.039 226.097 133.059 216.749 131.5Z" fill="black"/>
<path d="M216.749 129.958C216.749 129.958 189.549 122.968 185.667 162.578C181.785 202.188 188.77 206.856 177.115 230.935C165.46 255.015 256.376 234.045 256.376 234.045C256.376 234.045 251.714 228.605 236.949 230.935L229.956 209.965C229.956 209.965 227.649 200.661 240.863 200.661C254.077 200.661 247.856 173.473 247.856 173.473C247.856 173.473 240.863 150.173 236.973 147.843C233.082 145.513 226.097 131.5 216.749 129.958Z" fill="#E23537"/>
<path d="M233.09 129.95C247.251 129.95 258.731 118.475 258.731 104.32C258.731 90.1649 247.251 78.6899 233.09 78.6899C218.929 78.6899 207.45 90.1649 207.45 104.32C207.45 118.475 218.929 129.95 233.09 129.95Z" fill="#A0616A"/>
<path d="M228.139 235.555L292.579 274.057L352.533 218.217L281.06 193.334L229.626 228.332L228.139 235.555Z" fill="#DADAE5"/>
<path d="M304.185 127.781L284.131 187.397L350.62 206.511L379.002 125.893L304.185 127.781Z" fill="#DADAE5"/>
<path opacity="0.03" d="M298.832 123.378L304.274 128.351L379.09 126.463L380.81 121.578L298.832 123.378Z" fill="black"/>
<path opacity="0.03" d="M279.083 183.966L298.832 123.378L304.274 128.351L284.726 186.473L279.083 183.966Z" fill="black"/>
<path d="M298.744 122.807L304.185 127.781L379.002 125.893L380.722 121.008L298.744 122.807Z" fill="#EFF0F4"/>
<path d="M278.995 183.403L298.744 122.807L304.185 127.78L284.637 185.902L278.995 183.403Z" fill="#EFF0F4"/>
<path opacity="0.03" d="M298.744 122.807L307.063 130.585L381.887 128.697L380.722 121.008L298.744 122.807Z" fill="black"/>
<path opacity="0.03" d="M278.995 183.403L298.744 122.807L307.063 130.585L287.515 188.706L278.995 183.403Z" fill="black"/>
<path opacity="0.03" d="M279.123 184.255L280.94 195.784L352.855 220.74L350.757 207.362L279.123 184.255Z" fill="black"/>
<path opacity="0.03" d="M225.961 222.146L279.123 184.255L281.446 195.776L229.224 234.599L225.961 222.146Z" fill="black"/>
<path d="M278.995 183.403L280.554 193.342L352.469 218.297L350.62 206.511L278.995 183.403Z" fill="#EFF0F4"/>
<path d="M225.824 221.286L278.995 183.403L281.06 193.334L228.838 232.157L225.824 221.286Z" fill="#EFF0F4"/>
<path opacity="0.03" d="M278.995 183.403L280.554 193.342L352.469 218.297L350.62 206.511L278.995 183.403Z" fill="black"/>
<path opacity="0.03" d="M225.824 221.286L278.995 183.403L281.06 193.334L228.838 232.157L225.824 221.286Z" fill="black"/>
<path d="M225.824 221.286L228.227 235.612L292.49 273.992L290.907 259.249L225.824 221.286Z" fill="#CCCAD6"/>
<path d="M255.106 219.02C255.106 219.02 253.989 221.149 255.693 222.13C256.497 222.596 262.308 223.736 268.144 224.829C271.005 225.359 273.875 225.874 276.181 226.275C278.995 226.773 280.94 227.079 280.94 227.079H282.419L291.357 227.248L299.765 227.408L303.325 226.677L301.276 212.713L290.634 201.023L288.407 202.903L288.029 203.224L282.178 206.069L265.668 214.103L258.241 217.719L257.373 218.144L255.106 219.02Z" fill="#FFE09C"/>
<path d="M309.338 225.761C309.338 225.761 307.336 210.496 301.565 205.145C301.565 205.145 296.823 200.324 293.905 199.006C293.905 199.006 291.421 197.247 288.978 202.55C288.978 202.55 298.358 208.286 300.383 217.212L302.401 226.139L309.338 225.761Z" fill="#E7C4C3"/>
<path d="M298.057 220.313C299.252 218.443 298.431 215.785 296.224 214.375C294.017 212.966 291.259 213.339 290.064 215.209C288.869 217.079 289.69 219.737 291.897 221.146C294.104 222.555 296.862 222.182 298.057 220.313Z" fill="#FF7F8E"/>
<path d="M283.395 216.997C284.59 215.127 283.769 212.469 281.562 211.06C279.354 209.65 276.597 210.024 275.402 211.893C274.207 213.763 275.027 216.421 277.235 217.831C279.442 219.24 282.2 218.867 283.395 216.997Z" fill="#FF7F8E"/>
<path d="M282.178 206.077C282.24 206.867 282.492 207.631 282.911 208.303C283.331 208.976 283.906 209.538 284.589 209.941C286.791 211.347 289.548 210.978 290.738 209.138C291.928 207.298 291.116 204.614 288.905 203.208C288.755 203.112 288.599 203.024 288.439 202.943L288.061 203.264L282.178 206.077Z" fill="#FF7F8E"/>
<path d="M282.821 224.146C282.547 224.587 282.369 225.08 282.299 225.593C282.228 226.107 282.266 226.629 282.411 227.127L291.349 227.296C291.314 226.478 291.076 225.682 290.654 224.981C290.233 224.279 289.643 223.694 288.938 223.279C286.767 221.905 284.01 222.282 282.821 224.146Z" fill="#FF7F8E"/>
<path d="M268.256 221.069C267.916 221.634 267.727 222.276 267.708 222.934C267.688 223.593 267.838 224.245 268.144 224.829C271.005 225.36 273.875 225.874 276.181 226.275L276.254 226.171C277.443 224.307 276.623 221.648 274.421 220.242C272.219 218.836 269.454 219.205 268.256 221.069Z" fill="#FF7F8E"/>
<path d="M258.241 217.735C258.585 218.118 258.98 218.454 259.414 218.731C261.617 220.137 264.374 219.767 265.563 217.928C265.906 217.361 266.095 216.715 266.113 216.053C266.132 215.391 265.978 214.736 265.668 214.151L258.241 217.735Z" fill="#FF7F8E"/>
<path d="M296.678 223.343L295.874 224.62C295.041 223.751 294.029 223.074 292.908 222.636L292.675 222.579C291.172 222.306 293.479 221.302 293.479 221.302C293.479 221.302 296.365 222.499 296.678 223.343Z" fill="#94CC79"/>
<path d="M289.693 214.119L288.889 215.405C288.058 214.532 287.045 213.852 285.923 213.412L285.69 213.356C284.195 213.091 286.494 212.078 286.494 212.078C286.494 212.078 289.38 213.276 289.693 214.119Z" fill="#94CC79"/>
<path d="M285.337 217.534L284.533 218.811C283.7 217.942 282.688 217.265 281.567 216.827L281.334 216.771C279.831 216.497 282.137 215.493 282.137 215.493C282.137 215.493 285.015 216.674 285.337 217.534Z" fill="#94CC79"/>
<path d="M276.037 220.748L275.233 222.033C274.401 221.161 273.389 220.481 272.267 220.041L272.034 219.985C270.531 219.719 272.838 218.707 272.838 218.707C272.838 218.707 275.715 219.872 276.037 220.748Z" fill="#94CC79"/>
<path d="M262.565 220.266L261.761 221.551C260.926 220.679 259.912 219.999 258.787 219.559L258.554 219.502C257.059 219.237 259.358 218.225 259.358 218.225C259.358 218.225 262.236 219.414 262.565 220.266Z" fill="#94CC79"/>
<path d="M273.617 215.445L272.814 216.722C271.982 215.85 270.97 215.17 269.848 214.73L269.614 214.673C268.111 214.408 270.418 213.396 270.418 213.396C270.418 213.396 273.296 214.593 273.617 215.445Z" fill="#94CC79"/>
<path d="M306.774 229.722C306.774 229.722 311.942 229.16 309.305 225.761C306.505 225.078 303.577 225.128 300.801 225.906C300.801 225.906 278.802 226.886 275.948 225.311C275.948 225.311 256.014 222.098 255.211 221.085C255.211 221.085 253.603 221.439 258.49 223.608C263.377 225.777 279.011 228.043 279.011 228.043L295.593 229.361L301.557 228.622L306.774 229.722Z" fill="#E7C4C3"/>
<path opacity="0.2" d="M306.774 229.722C306.774 229.722 311.942 229.16 309.305 225.761C306.505 225.078 303.577 225.128 300.801 225.906C300.801 225.906 278.802 226.886 275.948 225.311C275.948 225.311 256.014 222.098 255.211 221.085C255.211 221.085 253.603 221.439 258.49 223.608C263.377 225.777 279.011 228.043 279.011 228.043L295.593 229.361L301.557 228.622L306.774 229.722Z" fill="white"/>
<path d="M291.1 221.84C290.858 222.592 290.8 223.39 290.93 224.169C291.06 224.947 291.375 225.683 291.847 226.316C293.358 228.445 296.051 229.136 297.868 227.858C299.684 226.581 299.917 223.841 298.398 221.672C298.294 221.527 298.181 221.382 298.069 221.246L297.586 221.407L291.1 221.84Z" fill="#FF7F8E"/>
<path d="M290.907 259.249L350.62 206.51L352.453 218.152L292.49 273.992L290.907 259.249Z" fill="#CCCAD6"/>
<path d="M358.369 209.516L350.62 206.511L380.722 121.008L386.461 125.057L358.369 209.516Z" fill="#CCCAD6"/>
<g opacity="0.1">
<path opacity="0.1" d="M309.908 334.138C309.969 332.07 310.268 330.016 310.801 328.016L310.407 328.153C310.021 330.124 309.854 332.131 309.908 334.138Z" fill="white"/>
<path opacity="0.1" d="M313.903 362.958C307.65 363.328 288.262 354.409 284.38 349.749C283.868 349.121 283.554 348.355 283.48 347.548C283.365 348.203 283.386 348.874 283.541 349.521C283.695 350.168 283.981 350.776 284.38 351.308C288.262 355.968 307.65 364.878 313.903 364.509C320.51 364.123 342.655 365.312 343.434 355.189C343.488 354.917 343.452 354.634 343.33 354.385C341.545 363.689 320.341 362.596 313.903 362.958Z" fill="white"/>
</g>
<path d="M336.61 174.453C336.61 174.453 337.993 172.846 336.739 171.689C336.136 171.127 331.41 168.973 326.651 166.868C324.312 165.84 321.957 164.828 320.084 164.024L316.186 162.361L314.924 162.04L307.328 160.103L300.182 158.28L296.967 158.191L295.89 170.556L302.634 182.672L304.901 181.515L305.295 181.314L310.865 180.061L326.603 176.558L333.668 174.951L334.472 174.766L336.61 174.453Z" fill="#FFE09C"/>
<path d="M291.662 157.813C291.662 157.813 290.304 171.247 294.154 176.976C294.154 176.976 297.241 182.021 299.459 183.757C299.459 183.757 301.227 185.749 304.386 181.716C304.386 181.716 297.522 174.935 297.594 166.909L297.659 158.874L291.662 157.813Z" fill="#E7C4C3"/>
<path d="M305.995 170.755C307.389 169.4 307.223 166.969 305.623 165.324C304.023 163.679 301.596 163.444 300.202 164.798C298.808 166.153 298.974 168.585 300.574 170.23C302.174 171.875 304.601 172.11 305.995 170.755Z" fill="#FF7F8E"/>
<path d="M317.852 176.521C319.246 175.167 319.079 172.735 317.479 171.09C315.88 169.445 313.453 169.21 312.058 170.565C310.664 171.919 310.831 174.351 312.431 175.996C314.03 177.641 316.457 177.876 317.852 176.521Z" fill="#FF7F8E"/>
<path d="M310.897 180.069C311.004 179.385 310.946 178.686 310.728 178.029C310.51 177.372 310.138 176.777 309.643 176.293C308.035 174.686 305.624 174.413 304.218 175.77C302.811 177.128 302.996 179.555 304.595 181.202C304.702 181.315 304.815 181.422 304.933 181.523L305.327 181.322L310.897 180.069Z" fill="#FF7F8E"/>
<path d="M314.008 164.506C314.33 164.185 314.581 163.799 314.743 163.374C314.905 162.949 314.975 162.494 314.948 162.04L307.352 160.103C307.221 160.801 307.265 161.521 307.479 162.198C307.694 162.875 308.073 163.489 308.582 163.984C310.157 165.639 312.585 165.872 314.008 164.506Z" fill="#FF7F8E"/>
<path d="M325.791 170.066C326.198 169.649 326.491 169.134 326.642 168.572C326.792 168.009 326.795 167.417 326.651 166.852C324.312 165.824 321.957 164.812 320.084 164.008L319.996 164.08C318.605 165.438 318.774 167.873 320.374 169.52C321.973 171.167 324.401 171.424 325.791 170.066Z" fill="#FF7F8E"/>
<path d="M333.668 174.951C333.455 174.552 333.184 174.186 332.864 173.866C331.257 172.219 328.846 171.986 327.447 173.344C327.038 173.76 326.745 174.275 326.595 174.838C326.446 175.402 326.446 175.994 326.595 176.558L333.668 174.951Z" fill="#FF7F8E"/>
<path d="M301.951 162.417L302.907 161.493C303.446 162.402 304.176 163.183 305.045 163.783L305.23 163.88C306.46 164.41 304.274 164.804 304.274 164.804C304.274 164.804 302.087 163.205 301.951 162.417Z" fill="#94CC79"/>
<path d="M306.098 171.737L307.047 170.805C307.585 171.717 308.314 172.501 309.185 173.103L309.37 173.191C310.6 173.73 308.413 174.123 308.413 174.123C308.413 174.123 306.195 172.476 306.098 171.737Z" fill="#94CC79"/>
<path d="M310.495 169.672L311.452 168.74C311.99 169.652 312.719 170.436 313.59 171.038L313.775 171.127C315.004 171.665 312.818 172.059 312.818 172.059C312.818 172.059 310.6 170.46 310.495 169.672Z" fill="#94CC79"/>
<path d="M319.08 168.805L320.036 167.873C320.573 168.783 321.299 169.566 322.166 170.171L322.359 170.267C323.581 170.797 321.403 171.191 321.403 171.191C321.403 171.191 319.184 169.592 319.08 168.805Z" fill="#94CC79"/>
<path d="M330.501 171.906L331.458 170.974C331.991 171.886 332.718 172.671 333.588 173.272L333.781 173.36C335.003 173.898 332.824 174.292 332.824 174.292C332.824 174.292 330.606 172.685 330.501 171.906Z" fill="#94CC79"/>
<path d="M320.084 173.794L321.041 172.87C321.58 173.779 322.309 174.56 323.179 175.16C323.236 175.2 323.298 175.232 323.364 175.256C324.594 175.787 322.407 176.188 322.407 176.188C322.407 176.188 320.189 174.581 320.084 173.794Z" fill="#94CC79"/>
<path d="M294.62 154.937C294.62 154.937 290.095 154.383 291.662 157.813C293.915 158.963 296.425 159.517 298.953 159.42C298.953 159.42 317.93 163.004 320.052 164.916C320.052 164.916 336.425 171.649 336.932 172.693C336.932 172.693 338.37 172.693 334.641 169.873C330.911 167.053 318.027 161.951 318.027 161.951L304.137 157.492L298.896 156.922L294.62 154.937Z" fill="#E7C4C3"/>
<path opacity="0.2" d="M294.62 154.937C294.62 154.937 290.095 154.383 291.662 157.813C293.915 158.963 296.425 159.517 298.953 159.42C298.953 159.42 317.93 163.004 320.052 164.916C320.052 164.916 336.425 171.649 336.932 172.693C336.932 172.693 338.37 172.693 334.641 169.873C330.911 167.053 318.027 161.951 318.027 161.951L304.137 157.492L298.896 156.922L294.62 154.937Z" fill="white"/>
<path d="M271.479 173.65C273.788 172.439 275.877 170.85 277.66 168.949C278.464 168.001 279.139 166.933 279.967 166.001C282.054 163.772 284.766 162.226 287.748 161.566C290.706 160.916 293.731 160.622 296.758 160.69C298.785 160.561 300.817 160.806 302.755 161.413C303.724 161.73 304.597 162.288 305.291 163.034C305.986 163.78 306.479 164.69 306.725 165.679C307.167 168.09 305.592 170.428 303.703 171.978C301.944 173.413 299.874 174.417 297.659 174.911C295.853 175.223 294.03 175.435 292.201 175.546C281.446 176.671 271.849 182.52 262.461 187.847C254.182 192.531 249.488 192.314 240.895 196.379C240.558 193.808 236.667 195.801 236.723 193.206C236.772 191.269 236.868 188.313 238.701 187.172C240.831 185.846 244.327 185.565 246.739 184.761C252.279 182.945 257.69 180.758 262.935 178.213C265.834 176.794 268.682 175.273 271.479 173.65Z" fill="#A0616A"/>
<path opacity="0.1" d="M200.457 166.459L241.667 203.739C241.667 203.739 249.439 188.208 251.77 188.208C254.101 188.208 223.799 142.411 223.799 142.411C223.799 142.411 216.026 133.091 211.364 137.751C206.702 142.411 192.684 139.27 200.457 166.459Z" fill="black"/>
<path d="M199.677 164.908L240.863 202.188C240.863 202.188 248.636 186.649 250.967 186.649C253.298 186.649 222.987 140.853 222.987 140.853C222.987 140.853 215.214 131.525 210.552 136.185C205.89 140.845 191.904 137.719 199.677 164.908Z" fill="#E23537"/>
<path d="M267.484 99.1938C268.384 98.1938 269.114 97.0541 269.647 95.8193C273.199 87.7848 267.565 77.6935 257.943 74.9296C253.121 73.5235 247.719 73.8048 242.905 72.3103C239.03 71.1132 235.767 68.8475 232.214 67.0799C225.538 63.7919 218.151 62.2075 210.713 62.4681C203.439 62.7252 195.529 65.2802 192.547 70.8963C188.191 79.0754 196.205 89.3756 191.35 97.3378C187.781 103.187 179.124 104.914 171.946 107.453C164.515 110.022 157.75 114.213 152.141 119.722C146.514 125.346 142.495 133.059 145.325 140.033C146.973 144.123 150.694 147.32 153.652 150.848C158.587 156.635 161.474 163.888 161.865 171.483C162.256 179.077 160.129 186.589 155.814 192.852C154.432 194.836 152.816 196.773 152.245 199.022C150.879 204.389 156.393 209.789 162.767 210.833C169.141 211.878 175.756 209.499 180.716 205.988C185.294 202.833 188.979 198.549 191.414 193.551C197.306 181.065 193.166 167.037 192.579 153.595C192.507 152.029 192.579 150.325 193.681 149.096C195.385 147.256 198.6 147.304 201.349 147.063C208.462 146.437 215.013 142.451 218.027 136.956C223.791 126.382 217.079 111.607 227.15 103.653C239.826 93.6419 258.072 109.47 267.484 99.1938Z" fill="#3F3D56"/>
<path opacity="0.1" d="M257.943 74.8975H257.863C261.625 79.2522 263.039 85.1334 260.805 90.2112C260.272 91.446 259.542 92.5858 258.643 93.5857C249.23 103.862 230.984 88.0339 218.309 98.0448C208.237 105.999 214.949 120.774 209.186 131.348C206.196 136.843 199.621 140.828 192.507 141.455C189.758 141.696 186.543 141.648 184.839 143.488C183.706 144.717 183.665 146.421 183.738 147.987C184.325 161.429 188.464 175.457 182.572 187.943C180.138 192.941 176.453 197.225 171.874 200.38C166.915 203.875 160.307 206.286 153.925 205.241L153.483 205.145C154.573 206.667 155.955 207.956 157.549 208.939C159.143 209.921 160.917 210.576 162.767 210.865C169.149 211.902 175.716 209.491 180.716 205.988C185.294 202.833 188.979 198.549 191.414 193.551C197.306 181.065 193.166 167.037 192.579 153.595C192.507 152.029 192.579 150.325 193.681 149.096C195.385 147.256 198.6 147.304 201.349 147.063C208.462 146.437 215.013 142.451 218.027 136.956C223.791 126.382 217.079 111.607 227.15 103.653C239.826 93.6419 258.072 109.47 267.484 99.1938C268.384 98.1938 269.114 97.0541 269.647 95.8193C273.199 87.7607 267.565 77.7336 257.943 74.8975Z" fill="black"/>
</svg>
