<svg width="35" height="29" viewBox="0 0 35 29" fill="none" xmlns="http://www.w3.org/2000/svg">
<path d="M34.999 3.43514C34.0244 4.91389 32.8287 6.17445 31.4118 7.21682C31.4258 7.49638 31.4328 7.81236 31.4328 8.16475C31.4328 10.1227 31.153 12.083 30.5932 14.0457C30.0335 16.0084 29.1786 17.887 28.0283 19.6816C26.8781 21.4762 25.508 23.0661 23.918 24.4512C22.3279 25.8363 20.4166 26.9407 18.1841 27.7645C15.9515 28.5882 13.5588 29 11.006 29C7.02187 29 3.35288 27.9029 -0.000976562 25.7087C0.594293 25.7763 1.16521 25.8101 1.71176 25.8101C5.04018 25.8101 8.01299 24.7644 10.6302 22.673C9.0783 22.6439 7.68846 22.1566 6.46068 21.2111C5.23289 20.2656 4.38796 19.0573 3.92588 17.5864C4.38262 17.6752 4.8334 17.7195 5.27823 17.7195C5.91854 17.7195 6.54858 17.6344 7.16838 17.464C5.51222 17.1257 4.13829 16.2843 3.0466 14.9398C1.95494 13.5954 1.40912 12.0437 1.40912 10.2847V10.194C2.42567 10.7681 3.50999 11.0735 4.66208 11.1102C3.68098 10.443 2.90312 9.57304 2.32849 8.50022C1.75382 7.42739 1.46649 6.26641 1.46649 5.01726C1.46649 3.69983 1.79014 2.47305 2.43744 1.33693C4.23848 3.59133 6.42083 5.39312 8.98447 6.7423C11.5481 8.09149 14.2985 8.84079 17.2355 8.9902C17.1102 8.4577 17.0475 7.90202 17.0472 7.32314C17.0472 5.30192 17.7485 3.57609 19.151 2.14565C20.5535 0.715217 22.2455 0 24.2271 0C26.3017 0 28.0492 0.77054 29.4695 2.31162C31.0923 1.98374 32.6118 1.3907 34.0279 0.532498C33.4823 2.2839 32.431 3.635 30.874 4.58577C32.3051 4.41231 33.6801 4.02877 34.999 3.43514H34.999Z" fill="white"/>
</svg>
